<svg width="260" height="302" viewBox="0 0 260 302" fill="none" xmlns="http://www.w3.org/2000/svg">
<rect width="260" height="302" rx="16" fill="white"/>
<rect x="10" y="10" width="240" height="282" rx="8" fill="black"/>
<path d="M44.3643 53.623C44.1252 54.0025 43.6149 54.1087 43.2163 53.881C40.075 52.0593 36.1364 51.6494 31.4802 52.6514C31.0338 52.7425 30.5873 52.4844 30.4916 52.0593C30.3959 51.6343 30.667 51.2092 31.1135 51.1181C36.2002 50.0099 40.5693 50.4805 44.0773 52.5299C44.476 52.7576 44.6035 53.2434 44.3643 53.623ZM45.9908 50.1617C45.6878 50.6323 45.05 50.769 44.5557 50.4957C40.9679 48.3856 35.4985 47.7783 31.257 49.008C30.6989 49.1598 30.1249 48.8714 29.9654 48.3552C29.8059 47.8239 30.1089 47.2774 30.667 47.1256C35.5145 45.7289 41.542 46.3969 45.6719 48.8106C46.1343 49.0839 46.2938 49.6911 45.9908 50.1617ZM46.1343 46.5487C41.829 44.1197 34.7332 43.892 30.6192 45.0761C29.9654 45.2735 29.2638 44.9243 29.0565 44.2867C28.8492 43.6643 29.2319 42.9964 29.8857 42.799C34.6056 41.4327 42.4509 41.706 47.394 44.4993C47.984 44.8332 48.1754 45.5619 47.8246 46.1236C47.4897 46.7005 46.7243 46.8978 46.1343 46.5487Z" fill="white"/>
<path d="M65.7727 44.7727C65.7045 44.197 65.428 43.75 64.9432 43.4318C64.4583 43.1136 63.8636 42.9545 63.1591 42.9545C62.6439 42.9545 62.1932 43.0379 61.8068 43.2045C61.4242 43.3712 61.125 43.6004 60.9091 43.892C60.697 44.1837 60.5909 44.5152 60.5909 44.8864C60.5909 45.197 60.6648 45.464 60.8125 45.6875C60.964 45.9072 61.1572 46.0909 61.392 46.2386C61.6269 46.3826 61.8731 46.5019 62.1307 46.5966C62.3883 46.6875 62.625 46.7614 62.8409 46.8182L64.0227 47.1364C64.3258 47.2159 64.6629 47.3258 65.0341 47.4659C65.4091 47.6061 65.767 47.7973 66.108 48.0398C66.4527 48.2784 66.7367 48.5852 66.9602 48.9602C67.1837 49.3352 67.2955 49.7955 67.2955 50.3409C67.2955 50.9697 67.1307 51.5379 66.8011 52.0455C66.4754 52.553 65.9981 52.9564 65.3693 53.2557C64.7443 53.5549 63.9848 53.7045 63.0909 53.7045C62.2576 53.7045 61.536 53.5701 60.9261 53.3011C60.3201 53.0322 59.8428 52.6572 59.4943 52.1761C59.1496 51.6951 58.9545 51.1364 58.9091 50.5H60.3636C60.4015 50.9394 60.5492 51.303 60.8068 51.5909C61.0682 51.875 61.3977 52.0871 61.7955 52.2273C62.197 52.3636 62.6288 52.4318 63.0909 52.4318C63.6288 52.4318 64.1117 52.3447 64.5398 52.1705C64.9678 51.9924 65.3068 51.7462 65.5568 51.4318C65.8068 51.1136 65.9318 50.7424 65.9318 50.3182C65.9318 49.9318 65.8239 49.6174 65.608 49.375C65.392 49.1326 65.108 48.9356 64.7557 48.7841C64.4034 48.6326 64.0227 48.5 63.6136 48.3864L62.1818 47.9773C61.2727 47.7159 60.553 47.3428 60.0227 46.858C59.4924 46.3731 59.2273 45.7386 59.2273 44.9545C59.2273 44.303 59.4034 43.7348 59.7557 43.25C60.1117 42.7614 60.589 42.3826 61.1875 42.1136C61.7898 41.8409 62.4621 41.7045 63.2045 41.7045C63.9545 41.7045 64.6212 41.839 65.2045 42.108C65.7879 42.3731 66.25 42.7367 66.5909 43.1989C66.9356 43.661 67.1174 44.1856 67.1364 44.7727H65.7727ZM69.4304 56.7727V44.7727H70.7259V46.1591H70.8849C70.9834 46.0076 71.1198 45.8144 71.294 45.5795C71.4721 45.3409 71.7259 45.1288 72.0554 44.9432C72.3887 44.7538 72.8395 44.6591 73.4077 44.6591C74.1425 44.6591 74.7902 44.8428 75.3509 45.2102C75.9115 45.5777 76.349 46.0985 76.6634 46.7727C76.9777 47.447 77.1349 48.2424 77.1349 49.1591C77.1349 50.0833 76.9777 50.8845 76.6634 51.5625C76.349 52.2367 75.9134 52.7595 75.3565 53.1307C74.7997 53.4981 74.1577 53.6818 73.4304 53.6818C72.8698 53.6818 72.4209 53.589 72.0838 53.4034C71.7467 53.214 71.4872 53 71.3054 52.7614C71.1236 52.5189 70.9834 52.3182 70.8849 52.1591H70.7713V56.7727H69.4304ZM70.7486 49.1364C70.7486 49.7955 70.8452 50.3769 71.0384 50.8807C71.2315 51.3807 71.5137 51.7727 71.8849 52.0568C72.2562 52.3371 72.7107 52.4773 73.2486 52.4773C73.8092 52.4773 74.277 52.3295 74.652 52.0341C75.0308 51.7348 75.3149 51.3333 75.5043 50.8295C75.6974 50.322 75.794 49.7576 75.794 49.1364C75.794 48.5227 75.6993 47.9697 75.5099 47.4773C75.3243 46.9811 75.0421 46.589 74.6634 46.3011C74.2884 46.0095 73.8168 45.8636 73.2486 45.8636C72.7031 45.8636 72.2448 46.0019 71.8736 46.2784C71.5024 46.5511 71.2221 46.9337 71.0327 47.4261C70.8433 47.9148 70.7486 48.4848 70.7486 49.1364ZM82.7259 53.6818C81.938 53.6818 81.2467 53.4943 80.652 53.1193C80.0611 52.7443 79.599 52.2197 79.2656 51.5455C78.9361 50.8712 78.7713 50.0833 78.7713 49.1818C78.7713 48.2727 78.9361 47.4792 79.2656 46.8011C79.599 46.1231 80.0611 45.5966 80.652 45.2216C81.2467 44.8466 81.938 44.6591 82.7259 44.6591C83.5137 44.6591 84.2031 44.8466 84.794 45.2216C85.3887 45.5966 85.8509 46.1231 86.1804 46.8011C86.5137 47.4792 86.6804 48.2727 86.6804 49.1818C86.6804 50.0833 86.5137 50.8712 86.1804 51.5455C85.8509 52.2197 85.3887 52.7443 84.794 53.1193C84.2031 53.4943 83.5137 53.6818 82.7259 53.6818ZM82.7259 52.4773C83.3243 52.4773 83.8168 52.3239 84.2031 52.017C84.5895 51.7102 84.8755 51.3068 85.0611 50.8068C85.2467 50.3068 85.3395 49.7652 85.3395 49.1818C85.3395 48.5985 85.2467 48.0549 85.0611 47.5511C84.8755 47.0473 84.5895 46.6402 84.2031 46.3295C83.8168 46.0189 83.3243 45.8636 82.7259 45.8636C82.1274 45.8636 81.6349 46.0189 81.2486 46.3295C80.8622 46.6402 80.5762 47.0473 80.3906 47.5511C80.205 48.0549 80.1122 48.5985 80.1122 49.1818C80.1122 49.7652 80.205 50.3068 80.3906 50.8068C80.5762 51.3068 80.8622 51.7102 81.2486 52.017C81.6349 52.3239 82.1274 52.4773 82.7259 52.4773ZM92.5227 44.7727V45.9091H88V44.7727H92.5227ZM89.3182 42.6818H90.6591V51C90.6591 51.3788 90.714 51.6629 90.8239 51.8523C90.9375 52.0379 91.0814 52.1629 91.2557 52.2273C91.4337 52.2879 91.6212 52.3182 91.8182 52.3182C91.9659 52.3182 92.0871 52.3106 92.1818 52.2955C92.2765 52.2765 92.3523 52.2614 92.4091 52.25L92.6818 53.4545C92.5909 53.4886 92.464 53.5227 92.3011 53.5568C92.1383 53.5947 91.9318 53.6136 91.6818 53.6136C91.303 53.6136 90.9318 53.5322 90.5682 53.3693C90.2083 53.2064 89.9091 52.9583 89.6705 52.625C89.4356 52.2917 89.3182 51.8712 89.3182 51.3636V42.6818ZM94.5398 53.5V44.7727H95.8807V53.5H94.5398ZM95.2216 43.3182C94.9602 43.3182 94.7348 43.2292 94.5455 43.0511C94.3598 42.8731 94.267 42.6591 94.267 42.4091C94.267 42.1591 94.3598 41.9451 94.5455 41.767C94.7348 41.589 94.9602 41.5 95.2216 41.5C95.483 41.5 95.7064 41.589 95.892 41.767C96.0814 41.9451 96.1761 42.1591 96.1761 42.4091C96.1761 42.6591 96.0814 42.8731 95.892 43.0511C95.7064 43.2292 95.483 43.3182 95.2216 43.3182ZM102.223 44.7727V45.9091H97.5185V44.7727H102.223ZM98.9276 53.5V43.5682C98.9276 43.0682 99.045 42.6515 99.2798 42.3182C99.5147 41.9848 99.8196 41.7348 100.195 41.5682C100.57 41.4015 100.965 41.3182 101.382 41.3182C101.712 41.3182 101.981 41.3447 102.189 41.3977C102.397 41.4508 102.553 41.5 102.655 41.5455L102.268 42.7045C102.2 42.6818 102.106 42.6534 101.984 42.6193C101.867 42.5852 101.712 42.5682 101.518 42.5682C101.075 42.5682 100.755 42.6799 100.558 42.9034C100.365 43.1269 100.268 43.4545 100.268 43.8864V53.5H98.9276ZM104.966 56.7727C104.739 56.7727 104.536 56.7538 104.358 56.7159C104.18 56.6818 104.057 56.6477 103.989 56.6136L104.33 55.4318C104.655 55.5152 104.943 55.5455 105.193 55.5227C105.443 55.5 105.665 55.3883 105.858 55.1875C106.055 54.9905 106.235 54.6705 106.398 54.2273L106.648 53.5455L103.42 44.7727H104.875L107.284 51.7273H107.375L109.784 44.7727H111.239L107.534 54.7727C107.367 55.2235 107.161 55.5966 106.915 55.892C106.669 56.1913 106.383 56.4129 106.057 56.5568C105.735 56.7008 105.371 56.7727 104.966 56.7727Z" fill="white"/>
<path d="M211 57L204 52L197 57V41C197 40.4696 197.211 39.9609 197.586 39.5858C197.961 39.2107 198.47 39 199 39H209C209.53 39 210.039 39.2107 210.414 39.5858C210.789 39.9609 211 40.4696 211 41V57Z" stroke="#F2F4F7" stroke-width="2" stroke-linecap="round" stroke-linejoin="round"/>
<path d="M31.1136 99.5455H33.6364L39.5682 114.034H39.7727L45.7045 99.5455H48.2273V117H46.25V103.739H46.0795L40.625 117H38.7159L33.2614 103.739H33.0909V117H31.1136V99.5455ZM56.0447 117.307C55.2152 117.307 54.4624 117.151 53.7862 116.838C53.1101 116.52 52.5732 116.062 52.1754 115.466C51.7777 114.864 51.5788 114.136 51.5788 113.284C51.5788 112.534 51.7266 111.926 52.022 111.46C52.3175 110.989 52.7124 110.619 53.2067 110.352C53.701 110.085 54.2464 109.886 54.843 109.756C55.4453 109.619 56.0504 109.511 56.6584 109.432C57.4538 109.33 58.0987 109.253 58.593 109.202C59.093 109.145 59.4567 109.051 59.6839 108.92C59.9169 108.79 60.0334 108.562 60.0334 108.239V108.17C60.0334 107.33 59.8033 106.676 59.343 106.21C58.8885 105.744 58.1982 105.511 57.272 105.511C56.3118 105.511 55.5589 105.722 55.0135 106.142C54.468 106.562 54.0845 107.011 53.8629 107.489L51.9538 106.807C52.2947 106.011 52.7493 105.392 53.3175 104.949C53.8913 104.5 54.5163 104.187 55.1925 104.011C55.8743 103.83 56.5447 103.739 57.2038 103.739C57.6243 103.739 58.1072 103.79 58.6527 103.892C59.2038 103.989 59.7351 104.19 60.2464 104.497C60.7635 104.804 61.1925 105.267 61.5334 105.886C61.8743 106.506 62.0447 107.335 62.0447 108.375V117H60.0334V115.227H59.9311C59.7947 115.511 59.5675 115.815 59.2493 116.139C58.9311 116.463 58.5078 116.739 57.9794 116.966C57.451 117.193 56.8061 117.307 56.0447 117.307ZM56.3516 115.5C57.147 115.5 57.8175 115.344 58.3629 115.031C58.9141 114.719 59.3288 114.315 59.6072 113.821C59.8913 113.327 60.0334 112.807 60.0334 112.261V110.42C59.9482 110.523 59.7607 110.616 59.4709 110.702C59.1868 110.781 58.8572 110.852 58.4822 110.915C58.1129 110.972 57.7521 111.023 57.3999 111.068C57.0533 111.108 56.772 111.142 56.5561 111.17C56.0334 111.239 55.5447 111.349 55.0902 111.503C54.6413 111.651 54.2777 111.875 53.9993 112.176C53.7266 112.472 53.5902 112.875 53.5902 113.386C53.5902 114.085 53.8487 114.614 54.3658 114.972C54.8885 115.324 55.5504 115.5 56.3516 115.5ZM65.7159 117V103.909H67.6591V105.886H67.7955C68.0341 105.239 68.4659 104.713 69.0909 104.31C69.7159 103.906 70.4205 103.705 71.2045 103.705C71.3523 103.705 71.5369 103.707 71.7585 103.713C71.9801 103.719 72.1477 103.727 72.2614 103.739V105.784C72.1932 105.767 72.0369 105.741 71.7926 105.707C71.554 105.668 71.3011 105.648 71.0341 105.648C70.3977 105.648 69.8295 105.781 69.3295 106.048C68.8352 106.31 68.4432 106.673 68.1534 107.139C67.8693 107.599 67.7273 108.125 67.7273 108.716V117H65.7159ZM76.5206 112.227L76.4865 109.739H76.8956L82.6229 103.909H85.1115L79.0092 110.08H78.8388L76.5206 112.227ZM74.6456 117V99.5455H76.657V117H74.6456ZM82.9638 117L77.8501 110.523L79.282 109.125L85.5206 117H82.9638ZM92.6499 117.273C91.3885 117.273 90.3004 116.994 89.3857 116.438C88.4766 115.875 87.7749 115.091 87.2805 114.085C86.7919 113.074 86.5476 111.898 86.5476 110.557C86.5476 109.216 86.7919 108.034 87.2805 107.011C87.7749 105.983 88.4624 105.182 89.343 104.608C90.2294 104.028 91.2635 103.739 92.4453 103.739C93.1271 103.739 93.8004 103.852 94.4652 104.08C95.13 104.307 95.7351 104.676 96.2805 105.188C96.826 105.693 97.2607 106.364 97.5845 107.199C97.9084 108.034 98.0703 109.062 98.0703 110.284V111.136H87.9794V109.398H96.0249C96.0249 108.659 95.8771 108 95.5817 107.42C95.2919 106.841 94.8771 106.384 94.3374 106.048C93.8033 105.713 93.1726 105.545 92.4453 105.545C91.6442 105.545 90.951 105.744 90.3658 106.142C89.7862 106.534 89.3402 107.045 89.0277 107.676C88.7152 108.307 88.5589 108.983 88.5589 109.705V110.864C88.5589 111.852 88.7294 112.69 89.0703 113.378C89.4169 114.06 89.897 114.58 90.5107 114.938C91.1243 115.29 91.8374 115.466 92.6499 115.466C93.1783 115.466 93.6555 115.392 94.0817 115.244C94.5135 115.091 94.8857 114.864 95.1982 114.562C95.5107 114.256 95.7521 113.875 95.9226 113.42L97.8658 113.966C97.6612 114.625 97.3175 115.205 96.8345 115.705C96.3516 116.199 95.755 116.585 95.0447 116.864C94.3345 117.136 93.5362 117.273 92.6499 117.273ZM106.823 103.909V105.614H100.039V103.909H106.823ZM102.016 100.773H104.028V113.25C104.028 113.818 104.11 114.244 104.275 114.528C104.445 114.807 104.661 114.994 104.923 115.091C105.19 115.182 105.471 115.227 105.766 115.227C105.988 115.227 106.17 115.216 106.312 115.193C106.454 115.165 106.567 115.142 106.653 115.125L107.062 116.932C106.925 116.983 106.735 117.034 106.491 117.085C106.246 117.142 105.937 117.17 105.562 117.17C104.994 117.17 104.437 117.048 103.891 116.804C103.352 116.56 102.903 116.188 102.545 115.688C102.192 115.188 102.016 114.557 102.016 113.795V100.773ZM109.849 117V103.909H111.86V117H109.849ZM110.871 101.727C110.479 101.727 110.141 101.594 109.857 101.327C109.579 101.06 109.44 100.739 109.44 100.364C109.44 99.9886 109.579 99.6676 109.857 99.4006C110.141 99.1335 110.479 99 110.871 99C111.263 99 111.599 99.1335 111.877 99.4006C112.161 99.6676 112.303 99.9886 112.303 100.364C112.303 100.739 112.161 101.06 111.877 101.327C111.599 101.594 111.263 101.727 110.871 101.727ZM117.555 109.125V117H115.544V103.909H117.487V105.955H117.658C117.964 105.29 118.43 104.756 119.055 104.352C119.68 103.943 120.487 103.739 121.476 103.739C122.362 103.739 123.138 103.92 123.803 104.284C124.467 104.642 124.984 105.188 125.354 105.92C125.723 106.648 125.908 107.568 125.908 108.682V117H123.896V108.818C123.896 107.79 123.629 106.989 123.095 106.415C122.561 105.835 121.828 105.545 120.896 105.545C120.254 105.545 119.68 105.685 119.175 105.963C118.675 106.241 118.28 106.648 117.99 107.182C117.7 107.716 117.555 108.364 117.555 109.125ZM134.867 122.182C133.896 122.182 133.06 122.057 132.362 121.807C131.663 121.562 131.08 121.239 130.614 120.835C130.154 120.438 129.788 120.011 129.515 119.557L131.117 118.432C131.299 118.67 131.529 118.943 131.808 119.25C132.086 119.562 132.467 119.832 132.95 120.06C133.438 120.293 134.077 120.409 134.867 120.409C135.924 120.409 136.796 120.153 137.484 119.642C138.171 119.131 138.515 118.33 138.515 117.239V114.58H138.344C138.197 114.818 137.987 115.114 137.714 115.466C137.447 115.812 137.06 116.122 136.555 116.395C136.055 116.662 135.379 116.795 134.526 116.795C133.469 116.795 132.521 116.545 131.68 116.045C130.844 115.545 130.183 114.818 129.694 113.864C129.211 112.909 128.969 111.75 128.969 110.386C128.969 109.045 129.205 107.878 129.677 106.884C130.148 105.884 130.805 105.111 131.646 104.565C132.487 104.014 133.458 103.739 134.56 103.739C135.413 103.739 136.089 103.881 136.589 104.165C137.094 104.443 137.481 104.761 137.748 105.119C138.021 105.472 138.231 105.761 138.379 105.989H138.583V103.909H140.526V117.375C140.526 118.5 140.271 119.415 139.759 120.119C139.254 120.83 138.572 121.349 137.714 121.679C136.862 122.014 135.913 122.182 134.867 122.182ZM134.799 114.989C135.606 114.989 136.288 114.804 136.844 114.435C137.401 114.065 137.825 113.534 138.114 112.841C138.404 112.148 138.549 111.318 138.549 110.352C138.549 109.409 138.407 108.577 138.123 107.855C137.839 107.134 137.418 106.568 136.862 106.159C136.305 105.75 135.617 105.545 134.799 105.545C133.947 105.545 133.237 105.761 132.668 106.193C132.106 106.625 131.683 107.205 131.398 107.932C131.12 108.659 130.981 109.466 130.981 110.352C130.981 111.261 131.123 112.065 131.407 112.764C131.697 113.457 132.123 114.003 132.685 114.401C133.254 114.793 133.958 114.989 134.799 114.989ZM40.6591 132.909C40.5568 132.045 40.142 131.375 39.4148 130.898C38.6875 130.42 37.7955 130.182 36.7386 130.182C35.9659 130.182 35.2898 130.307 34.7102 130.557C34.1364 130.807 33.6875 131.151 33.3636 131.588C33.0455 132.026 32.8864 132.523 32.8864 133.08C32.8864 133.545 32.9972 133.946 33.2188 134.281C33.446 134.611 33.7358 134.886 34.0881 135.108C34.4403 135.324 34.8097 135.503 35.196 135.645C35.5824 135.781 35.9375 135.892 36.2614 135.977L38.0341 136.455C38.4886 136.574 38.9943 136.739 39.5511 136.949C40.1136 137.159 40.6506 137.446 41.1619 137.81C41.679 138.168 42.1051 138.628 42.4403 139.19C42.7756 139.753 42.9432 140.443 42.9432 141.261C42.9432 142.205 42.696 143.057 42.2017 143.818C41.7131 144.58 40.9972 145.185 40.054 145.634C39.1165 146.082 37.9773 146.307 36.6364 146.307C35.3864 146.307 34.304 146.105 33.3892 145.702C32.4801 145.298 31.7642 144.736 31.2415 144.014C30.7244 143.293 30.4318 142.455 30.3636 141.5H32.5455C32.6023 142.159 32.8239 142.705 33.2102 143.136C33.6023 143.562 34.0966 143.881 34.6932 144.091C35.2955 144.295 35.9432 144.398 36.6364 144.398C37.4432 144.398 38.1676 144.267 38.8097 144.006C39.4517 143.739 39.9602 143.369 40.3352 142.898C40.7102 142.42 40.8977 141.864 40.8977 141.227C40.8977 140.648 40.7358 140.176 40.4119 139.812C40.0881 139.449 39.6619 139.153 39.1335 138.926C38.6051 138.699 38.0341 138.5 37.4205 138.33L35.2727 137.716C33.9091 137.324 32.8295 136.764 32.0341 136.037C31.2386 135.31 30.8409 134.358 30.8409 133.182C30.8409 132.205 31.1051 131.352 31.6335 130.625C32.1676 129.892 32.8835 129.324 33.7812 128.92C34.6847 128.511 35.6932 128.307 36.8068 128.307C37.9318 128.307 38.9318 128.509 39.8068 128.912C40.6818 129.31 41.375 129.855 41.8864 130.548C42.4034 131.241 42.6761 132.028 42.7045 132.909H40.6591ZM46.1456 150.909V132.909H48.0888V134.989H48.3274C48.4751 134.761 48.6797 134.472 48.9411 134.119C49.2081 133.761 49.5888 133.443 50.0831 133.165C50.5831 132.881 51.2592 132.739 52.1115 132.739C53.2138 132.739 54.1854 133.014 55.0263 133.565C55.8672 134.116 56.5234 134.898 56.995 135.909C57.4666 136.92 57.7024 138.114 57.7024 139.489C57.7024 140.875 57.4666 142.077 56.995 143.094C56.5234 144.105 55.87 144.889 55.0348 145.446C54.1996 145.997 53.2365 146.273 52.1456 146.273C51.3047 146.273 50.6314 146.134 50.1257 145.855C49.62 145.571 49.2308 145.25 48.9581 144.892C48.6854 144.528 48.4751 144.227 48.3274 143.989H48.157V150.909H46.1456ZM48.1229 139.455C48.1229 140.443 48.2678 141.315 48.5575 142.071C48.8473 142.821 49.2706 143.409 49.8274 143.835C50.3842 144.256 51.0661 144.466 51.8729 144.466C52.7138 144.466 53.4155 144.244 53.978 143.801C54.5462 143.352 54.9723 142.75 55.2564 141.994C55.5462 141.233 55.6911 140.386 55.6911 139.455C55.6911 138.534 55.549 137.705 55.2649 136.966C54.9865 136.222 54.5632 135.634 53.995 135.202C53.4325 134.764 52.7251 134.545 51.8729 134.545C51.0547 134.545 50.3672 134.753 49.8104 135.168C49.2536 135.577 48.8331 136.151 48.549 136.889C48.2649 137.622 48.1229 138.477 48.1229 139.455ZM66.2592 146.273C64.9979 146.273 63.9098 145.994 62.995 145.438C62.0859 144.875 61.3842 144.091 60.8899 143.085C60.4013 142.074 60.157 140.898 60.157 139.557C60.157 138.216 60.4013 137.034 60.8899 136.011C61.3842 134.983 62.0717 134.182 62.9524 133.608C63.8388 133.028 64.8729 132.739 66.0547 132.739C66.7365 132.739 67.4098 132.852 68.0746 133.08C68.7393 133.307 69.3445 133.676 69.8899 134.188C70.4354 134.693 70.87 135.364 71.1939 136.199C71.5178 137.034 71.6797 138.062 71.6797 139.284V140.136H61.5888V138.398H69.6342C69.6342 137.659 69.4865 137 69.1911 136.42C68.9013 135.841 68.4865 135.384 67.9467 135.048C67.4126 134.713 66.782 134.545 66.0547 134.545C65.2536 134.545 64.5604 134.744 63.9751 135.142C63.3956 135.534 62.9496 136.045 62.6371 136.676C62.3246 137.307 62.1683 137.983 62.1683 138.705V139.864C62.1683 140.852 62.3388 141.69 62.6797 142.378C63.0263 143.06 63.5064 143.58 64.12 143.938C64.7337 144.29 65.4467 144.466 66.2592 144.466C66.7876 144.466 67.2649 144.392 67.6911 144.244C68.1229 144.091 68.495 143.864 68.8075 143.562C69.12 143.256 69.3615 142.875 69.532 142.42L71.4751 142.966C71.2706 143.625 70.9268 144.205 70.4439 144.705C69.9609 145.199 69.3643 145.585 68.6541 145.864C67.9439 146.136 67.1456 146.273 66.2592 146.273ZM80.0575 146.273C78.8303 146.273 77.7734 145.983 76.8871 145.403C76.0007 144.824 75.3189 144.026 74.8416 143.009C74.3643 141.991 74.1257 140.83 74.1257 139.523C74.1257 138.193 74.37 137.02 74.8587 136.003C75.353 134.98 76.0405 134.182 76.9212 133.608C77.8075 133.028 78.8416 132.739 80.0234 132.739C80.9439 132.739 81.7734 132.909 82.5121 133.25C83.2507 133.591 83.8558 134.068 84.3274 134.682C84.799 135.295 85.0916 136.011 85.2053 136.83H83.1939C83.0405 136.233 82.6996 135.705 82.1712 135.244C81.6484 134.778 80.9439 134.545 80.0575 134.545C79.2734 134.545 78.5859 134.75 77.995 135.159C77.4098 135.562 76.9524 136.134 76.6229 136.872C76.299 137.605 76.1371 138.466 76.1371 139.455C76.1371 140.466 76.2962 141.347 76.6143 142.097C76.9382 142.847 77.3928 143.429 77.978 143.844C78.5689 144.259 79.2621 144.466 80.0575 144.466C80.5803 144.466 81.0547 144.375 81.4808 144.193C81.907 144.011 82.2678 143.75 82.5632 143.409C82.8587 143.068 83.0689 142.659 83.1939 142.182H85.2053C85.0916 142.955 84.8104 143.651 84.3615 144.27C83.9183 144.884 83.3303 145.372 82.5973 145.736C81.87 146.094 81.0234 146.273 80.0575 146.273ZM88.1456 146V132.909H90.157V146H88.1456ZM89.1683 130.727C88.7763 130.727 88.4382 130.594 88.1541 130.327C87.8757 130.06 87.7365 129.739 87.7365 129.364C87.7365 128.989 87.8757 128.668 88.1541 128.401C88.4382 128.134 88.7763 128 89.1683 128C89.5604 128 89.8956 128.134 90.174 128.401C90.4581 128.668 90.6001 128.989 90.6001 129.364C90.6001 129.739 90.4581 130.06 90.174 130.327C89.8956 130.594 89.5604 130.727 89.1683 130.727ZM97.6932 146.307C96.8636 146.307 96.1108 146.151 95.4347 145.838C94.7585 145.52 94.2216 145.062 93.8239 144.466C93.4261 143.864 93.2273 143.136 93.2273 142.284C93.2273 141.534 93.375 140.926 93.6705 140.46C93.9659 139.989 94.3608 139.619 94.8551 139.352C95.3494 139.085 95.8949 138.886 96.4915 138.756C97.0938 138.619 97.6989 138.511 98.3068 138.432C99.1023 138.33 99.7472 138.253 100.241 138.202C100.741 138.145 101.105 138.051 101.332 137.92C101.565 137.79 101.682 137.562 101.682 137.239V137.17C101.682 136.33 101.452 135.676 100.991 135.21C100.537 134.744 99.8466 134.511 98.9205 134.511C97.9602 134.511 97.2074 134.722 96.6619 135.142C96.1165 135.562 95.733 136.011 95.5114 136.489L93.6023 135.807C93.9432 135.011 94.3977 134.392 94.9659 133.949C95.5398 133.5 96.1648 133.187 96.8409 133.011C97.5227 132.83 98.1932 132.739 98.8523 132.739C99.2727 132.739 99.7557 132.79 100.301 132.892C100.852 132.989 101.384 133.19 101.895 133.497C102.412 133.804 102.841 134.267 103.182 134.886C103.523 135.506 103.693 136.335 103.693 137.375V146H101.682V144.227H101.58C101.443 144.511 101.216 144.815 100.898 145.139C100.58 145.463 100.156 145.739 99.6278 145.966C99.0994 146.193 98.4545 146.307 97.6932 146.307ZM98 144.5C98.7955 144.5 99.4659 144.344 100.011 144.031C100.563 143.719 100.977 143.315 101.256 142.821C101.54 142.327 101.682 141.807 101.682 141.261V139.42C101.597 139.523 101.409 139.616 101.119 139.702C100.835 139.781 100.506 139.852 100.131 139.915C99.7614 139.972 99.4006 140.023 99.0483 140.068C98.7017 140.108 98.4205 140.142 98.2045 140.17C97.6818 140.239 97.1932 140.349 96.7386 140.503C96.2898 140.651 95.9261 140.875 95.6477 141.176C95.375 141.472 95.2386 141.875 95.2386 142.386C95.2386 143.085 95.4972 143.614 96.0142 143.972C96.5369 144.324 97.1989 144.5 98 144.5ZM109.376 128.545V146H107.364V128.545H109.376ZM113.06 146V132.909H115.071V146H113.06ZM114.082 130.727C113.69 130.727 113.352 130.594 113.068 130.327C112.79 130.06 112.651 129.739 112.651 129.364C112.651 128.989 112.79 128.668 113.068 128.401C113.352 128.134 113.69 128 114.082 128C114.474 128 114.81 128.134 115.088 128.401C115.372 128.668 115.514 128.989 115.514 129.364C115.514 129.739 115.372 130.06 115.088 130.327C114.81 130.594 114.474 130.727 114.082 130.727ZM128.028 135.841L126.221 136.352C126.107 136.051 125.94 135.759 125.718 135.474C125.502 135.185 125.207 134.946 124.832 134.759C124.457 134.571 123.977 134.477 123.391 134.477C122.59 134.477 121.923 134.662 121.388 135.031C120.86 135.395 120.596 135.858 120.596 136.42C120.596 136.92 120.778 137.315 121.141 137.605C121.505 137.895 122.073 138.136 122.846 138.33L124.789 138.807C125.96 139.091 126.832 139.526 127.406 140.111C127.979 140.69 128.266 141.437 128.266 142.352C128.266 143.102 128.05 143.773 127.619 144.364C127.192 144.955 126.596 145.42 125.829 145.761C125.062 146.102 124.17 146.273 123.153 146.273C121.817 146.273 120.712 145.983 119.837 145.403C118.962 144.824 118.408 143.977 118.175 142.864L120.085 142.386C120.266 143.091 120.61 143.619 121.116 143.972C121.627 144.324 122.295 144.5 123.119 144.5C124.056 144.5 124.8 144.301 125.352 143.903C125.908 143.5 126.187 143.017 126.187 142.455C126.187 142 126.028 141.619 125.71 141.312C125.391 141 124.903 140.767 124.244 140.614L122.062 140.102C120.863 139.818 119.982 139.378 119.42 138.781C118.863 138.179 118.585 137.426 118.585 136.523C118.585 135.784 118.792 135.131 119.207 134.562C119.627 133.994 120.198 133.548 120.92 133.224C121.647 132.901 122.471 132.739 123.391 132.739C124.687 132.739 125.704 133.023 126.442 133.591C127.187 134.159 127.715 134.909 128.028 135.841ZM136.987 132.909V134.614H130.203V132.909H136.987ZM132.18 129.773H134.192V142.25C134.192 142.818 134.274 143.244 134.439 143.528C134.609 143.807 134.825 143.994 135.087 144.091C135.354 144.182 135.635 144.227 135.93 144.227C136.152 144.227 136.334 144.216 136.476 144.193C136.618 144.165 136.732 144.142 136.817 144.125L137.226 145.932C137.089 145.983 136.899 146.034 136.655 146.085C136.411 146.142 136.101 146.17 135.726 146.17C135.158 146.17 134.601 146.048 134.055 145.804C133.516 145.56 133.067 145.188 132.709 144.688C132.357 144.188 132.18 143.557 132.18 142.795V129.773Z" fill="white"/>
<path d="M197 140H211M211 140L204 133M211 140L204 147" stroke="#F2F4F7" stroke-width="2" stroke-linecap="round" stroke-linejoin="round"/>
<rect width="240" height="78" transform="translate(10 214)" fill="white"/>
<path d="M38.7102 259.955V245.409H39.642V259.955H38.7102ZM41.625 249.92C41.5644 249.383 41.3144 248.966 40.875 248.67C40.4356 248.371 39.8826 248.222 39.2159 248.222C38.7386 248.222 38.3258 248.297 37.9773 248.449C37.6288 248.597 37.358 248.801 37.1648 249.062C36.9754 249.32 36.8807 249.614 36.8807 249.943C36.8807 250.22 36.9451 250.458 37.0739 250.659C37.2064 250.86 37.3788 251.028 37.5909 251.165C37.8068 251.297 38.0379 251.409 38.2841 251.5C38.5303 251.587 38.767 251.659 38.9943 251.716L40.1307 252.011C40.5019 252.102 40.8826 252.225 41.2727 252.381C41.6629 252.536 42.0246 252.741 42.358 252.994C42.6913 253.248 42.9602 253.562 43.1648 253.938C43.3731 254.312 43.4773 254.761 43.4773 255.284C43.4773 255.943 43.3068 256.528 42.9659 257.04C42.6288 257.551 42.1383 257.955 41.4943 258.25C40.8542 258.545 40.0795 258.693 39.1705 258.693C38.2992 258.693 37.5455 258.555 36.9091 258.278C36.2727 258.002 35.7746 257.61 35.4148 257.102C35.0549 256.591 34.8561 255.985 34.8182 255.284H36.5795C36.6136 255.705 36.75 256.055 36.9886 256.335C37.2311 256.612 37.5398 256.818 37.9148 256.955C38.2936 257.087 38.7083 257.153 39.1591 257.153C39.6553 257.153 40.0966 257.076 40.483 256.92C40.8731 256.761 41.1799 256.542 41.4034 256.261C41.6269 255.977 41.7386 255.646 41.7386 255.267C41.7386 254.922 41.6402 254.64 41.4432 254.42C41.25 254.201 40.9867 254.019 40.6534 253.875C40.3239 253.731 39.9508 253.604 39.5341 253.494L38.1591 253.119C37.2273 252.866 36.4886 252.492 35.9432 252C35.4015 251.508 35.1307 250.856 35.1307 250.045C35.1307 249.375 35.3125 248.79 35.6761 248.29C36.0398 247.79 36.5322 247.402 37.1534 247.125C37.7746 246.845 38.4754 246.705 39.2557 246.705C40.0436 246.705 40.7386 246.843 41.3409 247.119C41.947 247.396 42.4242 247.777 42.7727 248.261C43.1212 248.742 43.303 249.295 43.3182 249.92H41.625ZM49.831 246.864V258.5H48.0696V248.625H48.0014L45.2173 250.443V248.761L48.1207 246.864H49.831ZM57.0298 258.693C56.1321 258.689 55.3651 258.453 54.7287 257.983C54.0923 257.513 53.6056 256.83 53.2685 255.932C52.9313 255.034 52.7628 253.953 52.7628 252.688C52.7628 251.426 52.9313 250.348 53.2685 249.455C53.6094 248.561 54.098 247.879 54.7344 247.409C55.3745 246.939 56.1397 246.705 57.0298 246.705C57.92 246.705 58.6832 246.941 59.3196 247.415C59.956 247.884 60.4427 248.566 60.7798 249.46C61.1207 250.35 61.2912 251.426 61.2912 252.688C61.2912 253.956 61.1226 255.04 60.7855 255.938C60.4484 256.831 59.9616 257.515 59.3253 257.989C58.6889 258.458 57.9238 258.693 57.0298 258.693ZM57.0298 257.176C57.8177 257.176 58.4332 256.792 58.8764 256.023C59.3234 255.254 59.5469 254.142 59.5469 252.688C59.5469 251.722 59.4446 250.905 59.2401 250.239C59.0393 249.568 58.7495 249.061 58.3707 248.716C57.9957 248.367 57.5488 248.193 57.0298 248.193C56.2457 248.193 55.6302 248.58 55.1832 249.352C54.7363 250.125 54.5109 251.237 54.5071 252.688C54.5071 253.657 54.6075 254.477 54.8082 255.148C55.0128 255.814 55.3026 256.32 55.6776 256.665C56.0526 257.006 56.5033 257.176 57.0298 257.176ZM67.7614 246.318L64.0114 260.25H62.4943L66.2443 246.318H67.7614ZM70.9034 253.318V258.5H69.2045V246.864H70.8807V251.193H70.9886C71.1932 250.723 71.5057 250.35 71.9261 250.074C72.3466 249.797 72.8958 249.659 73.5739 249.659C74.1723 249.659 74.6951 249.782 75.142 250.028C75.5928 250.275 75.9413 250.642 76.1875 251.131C76.4375 251.616 76.5625 252.222 76.5625 252.949V258.5H74.8636V253.153C74.8636 252.513 74.6989 252.017 74.3693 251.665C74.0398 251.309 73.5814 251.131 72.9943 251.131C72.5928 251.131 72.233 251.216 71.9148 251.386C71.6004 251.557 71.3523 251.807 71.1705 252.136C70.9924 252.462 70.9034 252.856 70.9034 253.318ZM78.8295 258.5V249.773H80.4716V251.159H80.5625C80.7216 250.689 81.0019 250.32 81.4034 250.051C81.8087 249.778 82.267 249.642 82.7784 249.642C82.8845 249.642 83.0095 249.646 83.1534 249.653C83.3011 249.661 83.4167 249.67 83.5 249.682V251.307C83.4318 251.288 83.3106 251.267 83.1364 251.244C82.9621 251.218 82.7879 251.205 82.6136 251.205C82.2121 251.205 81.8542 251.29 81.5398 251.46C81.2292 251.627 80.983 251.86 80.8011 252.159C80.6193 252.455 80.5284 252.792 80.5284 253.17V258.5H78.8295Z" fill="black"/>
<rect x="175" y="238" width="51" height="30" rx="8" fill="black"/>
<path d="M193.86 248.601L190.616 258H188.465L185.247 248.601H187.061L189.544 255.796L192.046 248.601H193.86ZM196.826 251.279V258H195.013V251.279H196.826ZM196.846 248.607V250.317H195V248.607H196.846ZM200.106 255.075C200.102 255.417 200.156 255.716 200.268 255.972C200.381 256.223 200.544 256.418 200.756 256.557C200.973 256.691 201.233 256.758 201.536 256.758C201.861 256.758 202.145 256.689 202.387 256.55C202.634 256.412 202.806 256.184 202.901 255.868H204.61C204.537 256.345 204.346 256.752 204.038 257.09C203.735 257.428 203.367 257.686 202.933 257.863C202.5 258.041 202.049 258.13 201.581 258.13C200.918 258.13 200.333 257.991 199.826 257.714C199.324 257.432 198.932 257.036 198.65 256.524C198.368 256.013 198.227 255.411 198.227 254.718C198.227 254.046 198.355 253.441 198.611 252.904C198.867 252.362 199.237 251.935 199.722 251.623C200.212 251.307 200.799 251.149 201.484 251.149C202.169 251.149 202.743 251.294 203.206 251.584C203.674 251.87 204.025 252.271 204.259 252.787C204.498 253.298 204.617 253.89 204.617 254.561V255.075H200.106ZM200.099 253.944H202.842C202.842 253.675 202.793 253.428 202.693 253.203C202.593 252.978 202.442 252.8 202.238 252.67C202.039 252.54 201.787 252.475 201.484 252.475C201.189 252.475 200.938 252.546 200.73 252.689C200.526 252.828 200.37 253.01 200.262 253.235C200.154 253.461 200.099 253.697 200.099 253.944ZM214.924 251.279L212.714 258H211.206L209.952 253.931L208.704 258H207.235L205.057 251.279H206.734L208.021 255.445H208.073L209.308 251.279H210.66L211.908 255.445H211.96L213.208 251.279H214.924Z" fill="white"/>
</svg>
