<svg width="260" height="302" viewBox="0 0 260 302" fill="none" xmlns="http://www.w3.org/2000/svg">
<rect width="260" height="302" rx="16" fill="white"/>
<rect x="10" y="10" width="240" height="282" rx="8" fill="black"/>
<path d="M51.5005 48.2326C51.5005 47.3693 51.4291 46.7393 51.2744 46.0859H41.2148V49.9826H47.1196C47.0006 50.9509 46.3577 52.4093 44.9291 53.3892L44.9091 53.5197L48.0897 55.9344L48.3101 55.9559C50.3338 54.1242 51.5005 51.4292 51.5005 48.2326Z" fill="#4285F4"/>
<path d="M41.214 58.4996C44.1068 58.4996 46.5353 57.5662 48.3092 55.9562L44.9282 53.3895C44.0235 54.0078 42.8092 54.4395 41.214 54.4395C38.3807 54.4395 35.976 52.6079 35.1187 50.0762L34.9931 50.0866L31.6858 52.595L31.6426 52.7128C33.4045 56.1428 37.0235 58.4996 41.214 58.4996Z" fill="#34A853"/>
<path d="M35.1209 50.0775C34.8948 49.4241 34.7639 48.7241 34.7639 48.0008C34.7639 47.2774 34.8948 46.5774 35.109 45.9241L35.1031 45.785L31.7543 43.2363L31.6448 43.2874C30.9186 44.7108 30.502 46.3091 30.502 48.0008C30.502 49.6924 30.9186 51.2907 31.6448 52.7141L35.1209 50.0775Z" fill="#FBBC05"/>
<path d="M41.2141 41.56C43.2259 41.56 44.583 42.4116 45.3569 43.1233L48.3807 40.23C46.5236 38.5383 44.1069 37.5 41.2141 37.5C37.0235 37.5 33.4045 39.8566 31.6426 43.2866L35.1069 45.9233C35.976 43.3917 38.3807 41.56 41.2141 41.56Z" fill="#EB4335"/>
<path d="M72.3636 45.5C72.2386 45.1174 72.0739 44.7746 71.8693 44.4716C71.6686 44.1648 71.428 43.9034 71.1477 43.6875C70.8712 43.4716 70.5568 43.3068 70.2045 43.1932C69.8523 43.0795 69.4659 43.0227 69.0455 43.0227C68.3561 43.0227 67.7292 43.2008 67.1648 43.5568C66.6004 43.9129 66.1515 44.4375 65.8182 45.1307C65.4848 45.8239 65.3182 46.6742 65.3182 47.6818C65.3182 48.6894 65.4867 49.5398 65.8239 50.233C66.161 50.9261 66.6174 51.4508 67.1932 51.8068C67.7689 52.1629 68.4167 52.3409 69.1364 52.3409C69.803 52.3409 70.3902 52.1989 70.8977 51.9148C71.4091 51.6269 71.8068 51.2216 72.0909 50.6989C72.3788 50.1723 72.5227 49.553 72.5227 48.8409L72.9545 48.9318H69.4545V47.6818H73.8864V48.9318C73.8864 49.8902 73.6818 50.7235 73.2727 51.4318C72.8674 52.1402 72.3068 52.6894 71.5909 53.0795C70.8788 53.4659 70.0606 53.6591 69.1364 53.6591C68.1061 53.6591 67.2008 53.4167 66.4205 52.9318C65.6439 52.447 65.0379 51.7576 64.6023 50.8636C64.1705 49.9697 63.9545 48.9091 63.9545 47.6818C63.9545 46.7614 64.0777 45.9337 64.3239 45.1989C64.5739 44.4602 64.9261 43.8314 65.3807 43.3125C65.8352 42.7936 66.3731 42.3958 66.9943 42.1193C67.6155 41.8428 68.2992 41.7045 69.0455 41.7045C69.6591 41.7045 70.2311 41.7973 70.7614 41.983C71.2955 42.1648 71.7708 42.4242 72.1875 42.7614C72.608 43.0947 72.9583 43.4943 73.2386 43.9602C73.5189 44.4223 73.7121 44.9356 73.8182 45.5H72.3636ZM79.6634 53.6818C78.8755 53.6818 78.1842 53.4943 77.5895 53.1193C76.9986 52.7443 76.5365 52.2197 76.2031 51.5455C75.8736 50.8712 75.7088 50.0833 75.7088 49.1818C75.7088 48.2727 75.8736 47.4792 76.2031 46.8011C76.5365 46.1231 76.9986 45.5966 77.5895 45.2216C78.1842 44.8466 78.8755 44.6591 79.6634 44.6591C80.4512 44.6591 81.1406 44.8466 81.7315 45.2216C82.3262 45.5966 82.7884 46.1231 83.1179 46.8011C83.4512 47.4792 83.6179 48.2727 83.6179 49.1818C83.6179 50.0833 83.4512 50.8712 83.1179 51.5455C82.7884 52.2197 82.3262 52.7443 81.7315 53.1193C81.1406 53.4943 80.4512 53.6818 79.6634 53.6818ZM79.6634 52.4773C80.2618 52.4773 80.7543 52.3239 81.1406 52.017C81.527 51.7102 81.813 51.3068 81.9986 50.8068C82.1842 50.3068 82.277 49.7652 82.277 49.1818C82.277 48.5985 82.1842 48.0549 81.9986 47.5511C81.813 47.0473 81.527 46.6402 81.1406 46.3295C80.7543 46.0189 80.2618 45.8636 79.6634 45.8636C79.0649 45.8636 78.5724 46.0189 78.1861 46.3295C77.7997 46.6402 77.5137 47.0473 77.3281 47.5511C77.1425 48.0549 77.0497 48.5985 77.0497 49.1818C77.0497 49.7652 77.1425 50.3068 77.3281 50.8068C77.5137 51.3068 77.7997 51.7102 78.1861 52.017C78.5724 52.3239 79.0649 52.4773 79.6634 52.4773ZM89.2102 53.6818C88.4223 53.6818 87.7311 53.4943 87.1364 53.1193C86.5455 52.7443 86.0833 52.2197 85.75 51.5455C85.4205 50.8712 85.2557 50.0833 85.2557 49.1818C85.2557 48.2727 85.4205 47.4792 85.75 46.8011C86.0833 46.1231 86.5455 45.5966 87.1364 45.2216C87.7311 44.8466 88.4223 44.6591 89.2102 44.6591C89.9981 44.6591 90.6875 44.8466 91.2784 45.2216C91.8731 45.5966 92.3352 46.1231 92.6648 46.8011C92.9981 47.4792 93.1648 48.2727 93.1648 49.1818C93.1648 50.0833 92.9981 50.8712 92.6648 51.5455C92.3352 52.2197 91.8731 52.7443 91.2784 53.1193C90.6875 53.4943 89.9981 53.6818 89.2102 53.6818ZM89.2102 52.4773C89.8087 52.4773 90.3011 52.3239 90.6875 52.017C91.0739 51.7102 91.3598 51.3068 91.5455 50.8068C91.7311 50.3068 91.8239 49.7652 91.8239 49.1818C91.8239 48.5985 91.7311 48.0549 91.5455 47.5511C91.3598 47.0473 91.0739 46.6402 90.6875 46.3295C90.3011 46.0189 89.8087 45.8636 89.2102 45.8636C88.6117 45.8636 88.1193 46.0189 87.733 46.3295C87.3466 46.6402 87.0606 47.0473 86.875 47.5511C86.6894 48.0549 86.5966 48.5985 86.5966 49.1818C86.5966 49.7652 86.6894 50.3068 86.875 50.8068C87.0606 51.3068 87.3466 51.7102 87.733 52.017C88.1193 52.3239 88.6117 52.4773 89.2102 52.4773ZM98.7344 56.9545C98.0866 56.9545 97.5298 56.8712 97.0639 56.7045C96.598 56.5417 96.2098 56.3258 95.8991 56.0568C95.5923 55.7917 95.348 55.5076 95.1662 55.2045L96.2344 54.4545C96.3556 54.6136 96.509 54.7955 96.6946 55C96.8802 55.2083 97.134 55.3883 97.456 55.5398C97.7817 55.6951 98.2079 55.7727 98.7344 55.7727C99.4389 55.7727 100.02 55.6023 100.479 55.2614C100.937 54.9205 101.166 54.3864 101.166 53.6591V51.8864H101.053C100.954 52.0455 100.814 52.2424 100.632 52.4773C100.454 52.7083 100.196 52.9148 99.8594 53.0966C99.526 53.2746 99.0753 53.3636 98.5071 53.3636C97.8026 53.3636 97.17 53.197 96.6094 52.8636C96.0526 52.5303 95.6113 52.0455 95.2855 51.4091C94.9635 50.7727 94.8026 50 94.8026 49.0909C94.8026 48.197 94.9598 47.4186 95.2741 46.7557C95.5885 46.089 96.026 45.5739 96.5866 45.2102C97.1473 44.8428 97.795 44.6591 98.5298 44.6591C99.098 44.6591 99.5488 44.7538 99.8821 44.9432C100.219 45.1288 100.477 45.3409 100.655 45.5795C100.837 45.8144 100.977 46.0076 101.075 46.1591H101.212V44.7727H102.507V53.75C102.507 54.5 102.337 55.1098 101.996 55.5795C101.659 56.053 101.204 56.3996 100.632 56.6193C100.064 56.8428 99.4313 56.9545 98.7344 56.9545ZM98.6889 52.1591C99.2268 52.1591 99.6813 52.036 100.053 51.7898C100.424 51.5436 100.706 51.1894 100.899 50.7273C101.092 50.2652 101.189 49.7121 101.189 49.0682C101.189 48.4394 101.094 47.8845 100.905 47.4034C100.715 46.9223 100.435 46.5455 100.064 46.2727C99.6927 46 99.2344 45.8636 98.6889 45.8636C98.1207 45.8636 97.6473 46.0076 97.2685 46.2955C96.8935 46.5833 96.6113 46.9697 96.4219 47.4545C96.2363 47.9394 96.1435 48.4773 96.1435 49.0682C96.1435 49.6742 96.2382 50.2102 96.4276 50.6761C96.6207 51.1383 96.9048 51.5019 97.2798 51.767C97.6586 52.0284 98.1283 52.1591 98.6889 52.1591ZM106.303 41.8636V53.5H104.962V41.8636H106.303ZM112.418 53.6818C111.577 53.6818 110.851 53.4962 110.241 53.125C109.635 52.75 109.168 52.2273 108.838 51.5568C108.512 50.8826 108.349 50.0985 108.349 49.2045C108.349 48.3106 108.512 47.5227 108.838 46.8409C109.168 46.1553 109.626 45.6212 110.213 45.2386C110.804 44.8523 111.493 44.6591 112.281 44.6591C112.736 44.6591 113.185 44.7348 113.628 44.8864C114.071 45.0379 114.474 45.2841 114.838 45.625C115.202 45.9621 115.491 46.4091 115.707 46.9659C115.923 47.5227 116.031 48.2083 116.031 49.0227V49.5909H109.304V48.4318H114.668C114.668 47.9394 114.569 47.5 114.372 47.1136C114.179 46.7273 113.902 46.4223 113.543 46.1989C113.187 45.9754 112.766 45.8636 112.281 45.8636C111.747 45.8636 111.285 45.9962 110.895 46.2614C110.509 46.5227 110.211 46.8636 110.003 47.2841C109.795 47.7045 109.69 48.1553 109.69 48.6364V49.4091C109.69 50.0682 109.804 50.6269 110.031 51.0852C110.262 51.5398 110.582 51.8864 110.991 52.125C111.401 52.3598 111.876 52.4773 112.418 52.4773C112.77 52.4773 113.088 52.428 113.372 52.3295C113.66 52.2273 113.908 52.0758 114.116 51.875C114.325 51.6705 114.486 51.4167 114.599 51.1136L115.895 51.4773C115.759 51.9167 115.529 52.303 115.207 52.6364C114.885 52.9659 114.488 53.2235 114.014 53.4091C113.541 53.5909 113.009 53.6818 112.418 53.6818Z" fill="white"/>
<path d="M211 57L204 52L197 57V41C197 40.4696 197.211 39.9609 197.586 39.5858C197.961 39.2107 198.47 39 199 39H209C209.53 39 210.039 39.2107 210.414 39.5858C210.789 39.9609 211 40.4696 211 41V57Z" stroke="#F2F4F7" stroke-width="2" stroke-linecap="round" stroke-linejoin="round"/>
<path d="M40.6591 103.909C40.5568 103.045 40.142 102.375 39.4148 101.898C38.6875 101.42 37.7955 101.182 36.7386 101.182C35.9659 101.182 35.2898 101.307 34.7102 101.557C34.1364 101.807 33.6875 102.151 33.3636 102.588C33.0455 103.026 32.8864 103.523 32.8864 104.08C32.8864 104.545 32.9972 104.946 33.2188 105.281C33.446 105.611 33.7358 105.886 34.0881 106.108C34.4403 106.324 34.8097 106.503 35.196 106.645C35.5824 106.781 35.9375 106.892 36.2614 106.977L38.0341 107.455C38.4886 107.574 38.9943 107.739 39.5511 107.949C40.1136 108.159 40.6506 108.446 41.1619 108.81C41.679 109.168 42.1051 109.628 42.4403 110.19C42.7756 110.753 42.9432 111.443 42.9432 112.261C42.9432 113.205 42.696 114.057 42.2017 114.818C41.7131 115.58 40.9972 116.185 40.054 116.634C39.1165 117.082 37.9773 117.307 36.6364 117.307C35.3864 117.307 34.304 117.105 33.3892 116.702C32.4801 116.298 31.7642 115.736 31.2415 115.014C30.7244 114.293 30.4318 113.455 30.3636 112.5H32.5455C32.6023 113.159 32.8239 113.705 33.2102 114.136C33.6023 114.562 34.0966 114.881 34.6932 115.091C35.2955 115.295 35.9432 115.398 36.6364 115.398C37.4432 115.398 38.1676 115.267 38.8097 115.006C39.4517 114.739 39.9602 114.369 40.3352 113.898C40.7102 113.42 40.8977 112.864 40.8977 112.227C40.8977 111.648 40.7358 111.176 40.4119 110.812C40.0881 110.449 39.6619 110.153 39.1335 109.926C38.6051 109.699 38.0341 109.5 37.4205 109.33L35.2727 108.716C33.9091 108.324 32.8295 107.764 32.0341 107.037C31.2386 106.31 30.8409 105.358 30.8409 104.182C30.8409 103.205 31.1051 102.352 31.6335 101.625C32.1676 100.892 32.8835 100.324 33.7812 99.9205C34.6847 99.5114 35.6932 99.3068 36.8068 99.3068C37.9318 99.3068 38.9318 99.5085 39.8068 99.9119C40.6818 100.31 41.375 100.855 41.8864 101.548C42.4034 102.241 42.6761 103.028 42.7045 103.909H40.6591ZM51.6342 117.273C50.3729 117.273 49.2848 116.994 48.37 116.438C47.4609 115.875 46.7592 115.091 46.2649 114.085C45.7763 113.074 45.532 111.898 45.532 110.557C45.532 109.216 45.7763 108.034 46.2649 107.011C46.7592 105.983 47.4467 105.182 48.3274 104.608C49.2138 104.028 50.2479 103.739 51.4297 103.739C52.1115 103.739 52.7848 103.852 53.4496 104.08C54.1143 104.307 54.7195 104.676 55.2649 105.188C55.8104 105.693 56.245 106.364 56.5689 107.199C56.8928 108.034 57.0547 109.062 57.0547 110.284V111.136H46.9638V109.398H55.0092C55.0092 108.659 54.8615 108 54.5661 107.42C54.2763 106.841 53.8615 106.384 53.3217 106.048C52.7876 105.713 52.157 105.545 51.4297 105.545C50.6286 105.545 49.9354 105.744 49.3501 106.142C48.7706 106.534 48.3246 107.045 48.0121 107.676C47.6996 108.307 47.5433 108.983 47.5433 109.705V110.864C47.5433 111.852 47.7138 112.69 48.0547 113.378C48.4013 114.06 48.8814 114.58 49.495 114.938C50.1087 115.29 50.8217 115.466 51.6342 115.466C52.1626 115.466 52.6399 115.392 53.0661 115.244C53.4979 115.091 53.87 114.864 54.1825 114.562C54.495 114.256 54.7365 113.875 54.907 113.42L56.8501 113.966C56.6456 114.625 56.3018 115.205 55.8189 115.705C55.3359 116.199 54.7393 116.585 54.0291 116.864C53.3189 117.136 52.5206 117.273 51.6342 117.273ZM62.1257 109.125V117H60.1143V103.909H62.0575V105.955H62.228C62.5348 105.29 63.0007 104.756 63.6257 104.352C64.2507 103.943 65.0575 103.739 66.0462 103.739C66.9325 103.739 67.7081 103.92 68.3729 104.284C69.0376 104.642 69.5547 105.188 69.924 105.92C70.2933 106.648 70.478 107.568 70.478 108.682V117H68.4666V108.818C68.4666 107.79 68.1996 106.989 67.6655 106.415C67.1314 105.835 66.3984 105.545 65.4666 105.545C64.8246 105.545 64.2507 105.685 63.745 105.963C63.245 106.241 62.8501 106.648 62.5604 107.182C62.2706 107.716 62.1257 108.364 62.1257 109.125ZM74.1534 117V103.909H76.1648V117H74.1534ZM75.1761 101.727C74.7841 101.727 74.446 101.594 74.1619 101.327C73.8835 101.06 73.7443 100.739 73.7443 100.364C73.7443 99.9886 73.8835 99.6676 74.1619 99.4006C74.446 99.1335 74.7841 99 75.1761 99C75.5682 99 75.9034 99.1335 76.1818 99.4006C76.4659 99.6676 76.608 99.9886 76.608 100.364C76.608 100.739 76.4659 101.06 76.1818 101.327C75.9034 101.594 75.5682 101.727 75.1761 101.727ZM85.1669 117.273C83.9851 117.273 82.9482 116.991 82.0561 116.429C81.1697 115.866 80.4766 115.08 79.9766 114.068C79.4822 113.057 79.2351 111.875 79.2351 110.523C79.2351 109.159 79.4822 107.969 79.9766 106.952C80.4766 105.935 81.1697 105.145 82.0561 104.582C82.9482 104.02 83.9851 103.739 85.1669 103.739C86.3487 103.739 87.3828 104.02 88.2692 104.582C89.1612 105.145 89.8544 105.935 90.3487 106.952C90.8487 107.969 91.0987 109.159 91.0987 110.523C91.0987 111.875 90.8487 113.057 90.3487 114.068C89.8544 115.08 89.1612 115.866 88.2692 116.429C87.3828 116.991 86.3487 117.273 85.1669 117.273ZM85.1669 115.466C86.0646 115.466 86.8033 115.236 87.3828 114.776C87.9624 114.315 88.3913 113.71 88.6697 112.96C88.9482 112.21 89.0874 111.398 89.0874 110.523C89.0874 109.648 88.9482 108.832 88.6697 108.077C88.3913 107.321 87.9624 106.71 87.3828 106.244C86.8033 105.778 86.0646 105.545 85.1669 105.545C84.2692 105.545 83.5305 105.778 82.951 106.244C82.3714 106.71 81.9425 107.321 81.6641 108.077C81.3857 108.832 81.2464 109.648 81.2464 110.523C81.2464 111.398 81.3857 112.21 81.6641 112.96C81.9425 113.71 82.3714 114.315 82.951 114.776C83.5305 115.236 84.2692 115.466 85.1669 115.466ZM94.169 117V103.909H96.1122V105.886H96.2486C96.4872 105.239 96.919 104.713 97.544 104.31C98.169 103.906 98.8736 103.705 99.6577 103.705C99.8054 103.705 99.9901 103.707 100.212 103.713C100.433 103.719 100.601 103.727 100.714 103.739V105.784C100.646 105.767 100.49 105.741 100.246 105.707C100.007 105.668 99.7543 105.648 99.4872 105.648C98.8509 105.648 98.2827 105.781 97.7827 106.048C97.2884 106.31 96.8963 106.673 96.6065 107.139C96.3224 107.599 96.1804 108.125 96.1804 108.716V117H94.169ZM121.576 99.5455H123.69V111.102C123.69 112.295 123.408 113.361 122.846 114.298C122.289 115.23 121.502 115.966 120.485 116.506C119.468 117.04 118.275 117.307 116.906 117.307C115.536 117.307 114.343 117.04 113.326 116.506C112.309 115.966 111.519 115.23 110.957 114.298C110.4 113.361 110.121 112.295 110.121 111.102V99.5455H112.235V110.932C112.235 111.784 112.423 112.543 112.798 113.207C113.173 113.866 113.707 114.386 114.4 114.767C115.099 115.142 115.934 115.33 116.906 115.33C117.877 115.33 118.712 115.142 119.411 114.767C120.11 114.386 120.644 113.866 121.013 113.207C121.388 112.543 121.576 111.784 121.576 110.932V99.5455ZM130.024 99.5455V117H127.911V99.5455H130.024ZM36.5 146H31.1136V128.545H36.7386C38.4318 128.545 39.8807 128.895 41.0852 129.594C42.2898 130.287 43.2131 131.284 43.8551 132.585C44.4972 133.881 44.8182 135.432 44.8182 137.239C44.8182 139.057 44.4943 140.622 43.8466 141.935C43.1989 143.241 42.2557 144.247 41.017 144.952C39.7784 145.651 38.2727 146 36.5 146ZM33.2273 144.125H36.3636C37.8068 144.125 39.0028 143.847 39.9517 143.29C40.9006 142.733 41.608 141.94 42.0739 140.912C42.5398 139.884 42.7727 138.659 42.7727 137.239C42.7727 135.83 42.5426 134.616 42.0824 133.599C41.6222 132.577 40.9347 131.793 40.0199 131.247C39.1051 130.696 37.9659 130.42 36.6023 130.42H33.2273V144.125ZM53.5795 146.273C52.3182 146.273 51.2301 145.994 50.3153 145.438C49.4062 144.875 48.7045 144.091 48.2102 143.085C47.7216 142.074 47.4773 140.898 47.4773 139.557C47.4773 138.216 47.7216 137.034 48.2102 136.011C48.7045 134.983 49.392 134.182 50.2727 133.608C51.1591 133.028 52.1932 132.739 53.375 132.739C54.0568 132.739 54.7301 132.852 55.3949 133.08C56.0597 133.307 56.6648 133.676 57.2102 134.188C57.7557 134.693 58.1903 135.364 58.5142 136.199C58.8381 137.034 59 138.062 59 139.284V140.136H48.9091V138.398H56.9545C56.9545 137.659 56.8068 137 56.5114 136.42C56.2216 135.841 55.8068 135.384 55.267 135.048C54.733 134.713 54.1023 134.545 53.375 134.545C52.5739 134.545 51.8807 134.744 51.2955 135.142C50.7159 135.534 50.2699 136.045 49.9574 136.676C49.6449 137.307 49.4886 137.983 49.4886 138.705V139.864C49.4886 140.852 49.6591 141.69 50 142.378C50.3466 143.06 50.8267 143.58 51.4403 143.938C52.054 144.29 52.767 144.466 53.5795 144.466C54.108 144.466 54.5852 144.392 55.0114 144.244C55.4432 144.091 55.8153 143.864 56.1278 143.562C56.4403 143.256 56.6818 142.875 56.8523 142.42L58.7955 142.966C58.5909 143.625 58.2472 144.205 57.7642 144.705C57.2813 145.199 56.6847 145.585 55.9744 145.864C55.2642 146.136 54.4659 146.273 53.5795 146.273ZM72.3658 132.909L67.5249 146H65.4794L60.6385 132.909H62.8203L66.4339 143.341H66.5703L70.1839 132.909H72.3658ZM80.0405 146.273C78.7791 146.273 77.6911 145.994 76.7763 145.438C75.8672 144.875 75.1655 144.091 74.6712 143.085C74.1825 142.074 73.9382 140.898 73.9382 139.557C73.9382 138.216 74.1825 137.034 74.6712 136.011C75.1655 134.983 75.853 134.182 76.7337 133.608C77.62 133.028 78.6541 132.739 79.8359 132.739C80.5178 132.739 81.1911 132.852 81.8558 133.08C82.5206 133.307 83.1257 133.676 83.6712 134.188C84.2166 134.693 84.6513 135.364 84.9751 136.199C85.299 137.034 85.4609 138.062 85.4609 139.284V140.136H75.37V138.398H83.4155C83.4155 137.659 83.2678 137 82.9723 136.42C82.6825 135.841 82.2678 135.384 81.728 135.048C81.1939 134.713 80.5632 134.545 79.8359 134.545C79.0348 134.545 78.3416 134.744 77.7564 135.142C77.1768 135.534 76.7308 136.045 76.4183 136.676C76.1058 137.307 75.9496 137.983 75.9496 138.705V139.864C75.9496 140.852 76.12 141.69 76.4609 142.378C76.8075 143.06 77.2876 143.58 77.9013 143.938C78.5149 144.29 79.228 144.466 80.0405 144.466C80.5689 144.466 81.0462 144.392 81.4723 144.244C81.9041 144.091 82.2763 143.864 82.5888 143.562C82.9013 143.256 83.1428 142.875 83.3132 142.42L85.2564 142.966C85.0518 143.625 84.7081 144.205 84.2251 144.705C83.7422 145.199 83.1456 145.585 82.4354 145.864C81.7251 146.136 80.9268 146.273 80.0405 146.273ZM90.532 128.545V146H88.5206V128.545H90.532ZM99.5341 146.273C98.3523 146.273 97.3153 145.991 96.4233 145.429C95.5369 144.866 94.8438 144.08 94.3438 143.068C93.8494 142.057 93.6023 140.875 93.6023 139.523C93.6023 138.159 93.8494 136.969 94.3438 135.952C94.8438 134.935 95.5369 134.145 96.4233 133.582C97.3153 133.02 98.3523 132.739 99.5341 132.739C100.716 132.739 101.75 133.02 102.636 133.582C103.528 134.145 104.222 134.935 104.716 135.952C105.216 136.969 105.466 138.159 105.466 139.523C105.466 140.875 105.216 142.057 104.716 143.068C104.222 144.08 103.528 144.866 102.636 145.429C101.75 145.991 100.716 146.273 99.5341 146.273ZM99.5341 144.466C100.432 144.466 101.17 144.236 101.75 143.776C102.33 143.315 102.759 142.71 103.037 141.96C103.315 141.21 103.455 140.398 103.455 139.523C103.455 138.648 103.315 137.832 103.037 137.077C102.759 136.321 102.33 135.71 101.75 135.244C101.17 134.778 100.432 134.545 99.5341 134.545C98.6364 134.545 97.8977 134.778 97.3182 135.244C96.7386 135.71 96.3097 136.321 96.0312 137.077C95.7528 137.832 95.6136 138.648 95.6136 139.523C95.6136 140.398 95.7528 141.21 96.0312 141.96C96.3097 142.71 96.7386 143.315 97.3182 143.776C97.8977 144.236 98.6364 144.466 99.5341 144.466ZM108.536 150.909V132.909H110.479V134.989H110.718C110.866 134.761 111.07 134.472 111.332 134.119C111.599 133.761 111.979 133.443 112.474 133.165C112.974 132.881 113.65 132.739 114.502 132.739C115.604 132.739 116.576 133.014 117.417 133.565C118.258 134.116 118.914 134.898 119.386 135.909C119.857 136.92 120.093 138.114 120.093 139.489C120.093 140.875 119.857 142.077 119.386 143.094C118.914 144.105 118.261 144.889 117.425 145.446C116.59 145.997 115.627 146.273 114.536 146.273C113.695 146.273 113.022 146.134 112.516 145.855C112.011 145.571 111.621 145.25 111.349 144.892C111.076 144.528 110.866 144.227 110.718 143.989H110.548V150.909H108.536ZM110.513 139.455C110.513 140.443 110.658 141.315 110.948 142.071C111.238 142.821 111.661 143.409 112.218 143.835C112.775 144.256 113.457 144.466 114.263 144.466C115.104 144.466 115.806 144.244 116.369 143.801C116.937 143.352 117.363 142.75 117.647 141.994C117.937 141.233 118.082 140.386 118.082 139.455C118.082 138.534 117.94 137.705 117.656 136.966C117.377 136.222 116.954 135.634 116.386 135.202C115.823 134.764 115.116 134.545 114.263 134.545C113.445 134.545 112.758 134.753 112.201 135.168C111.644 135.577 111.224 136.151 110.94 136.889C110.656 137.622 110.513 138.477 110.513 139.455ZM128.65 146.273C127.388 146.273 126.3 145.994 125.386 145.438C124.477 144.875 123.775 144.091 123.281 143.085C122.792 142.074 122.548 140.898 122.548 139.557C122.548 138.216 122.792 137.034 123.281 136.011C123.775 134.983 124.462 134.182 125.343 133.608C126.229 133.028 127.263 132.739 128.445 132.739C129.127 132.739 129.8 132.852 130.465 133.08C131.13 133.307 131.735 133.676 132.281 134.188C132.826 134.693 133.261 135.364 133.585 136.199C133.908 137.034 134.07 138.062 134.07 139.284V140.136H123.979V138.398H132.025C132.025 137.659 131.877 137 131.582 136.42C131.292 135.841 130.877 135.384 130.337 135.048C129.803 134.713 129.173 134.545 128.445 134.545C127.644 134.545 126.951 134.744 126.366 135.142C125.786 135.534 125.34 136.045 125.028 136.676C124.715 137.307 124.559 137.983 124.559 138.705V139.864C124.559 140.852 124.729 141.69 125.07 142.378C125.417 143.06 125.897 143.58 126.511 143.938C127.124 144.29 127.837 144.466 128.65 144.466C129.178 144.466 129.656 144.392 130.082 144.244C130.513 144.091 130.886 143.864 131.198 143.562C131.511 143.256 131.752 142.875 131.923 142.42L133.866 142.966C133.661 143.625 133.317 144.205 132.835 144.705C132.352 145.199 131.755 145.585 131.045 145.864C130.335 146.136 129.536 146.273 128.65 146.273ZM137.13 146V132.909H139.073V134.886H139.21C139.448 134.239 139.88 133.713 140.505 133.31C141.13 132.906 141.835 132.705 142.619 132.705C142.766 132.705 142.951 132.707 143.173 132.713C143.394 132.719 143.562 132.727 143.675 132.739V134.784C143.607 134.767 143.451 134.741 143.207 134.707C142.968 134.668 142.715 134.648 142.448 134.648C141.812 134.648 141.244 134.781 140.744 135.048C140.249 135.31 139.857 135.673 139.567 136.139C139.283 136.599 139.141 137.125 139.141 137.716V146H137.13Z" fill="white"/>
<path d="M197 140H211M211 140L204 133M211 140L204 147" stroke="#F2F4F7" stroke-width="2" stroke-linecap="round" stroke-linejoin="round"/>
<rect width="240" height="78" transform="translate(10 214)" fill="white"/>
<path d="M38.7102 259.955V245.409H39.642V259.955H38.7102ZM41.625 249.92C41.5644 249.383 41.3144 248.966 40.875 248.67C40.4356 248.371 39.8826 248.222 39.2159 248.222C38.7386 248.222 38.3258 248.297 37.9773 248.449C37.6288 248.597 37.358 248.801 37.1648 249.062C36.9754 249.32 36.8807 249.614 36.8807 249.943C36.8807 250.22 36.9451 250.458 37.0739 250.659C37.2064 250.86 37.3788 251.028 37.5909 251.165C37.8068 251.297 38.0379 251.409 38.2841 251.5C38.5303 251.587 38.767 251.659 38.9943 251.716L40.1307 252.011C40.5019 252.102 40.8826 252.225 41.2727 252.381C41.6629 252.536 42.0246 252.741 42.358 252.994C42.6913 253.248 42.9602 253.562 43.1648 253.938C43.3731 254.312 43.4773 254.761 43.4773 255.284C43.4773 255.943 43.3068 256.528 42.9659 257.04C42.6288 257.551 42.1383 257.955 41.4943 258.25C40.8542 258.545 40.0795 258.693 39.1705 258.693C38.2992 258.693 37.5455 258.555 36.9091 258.278C36.2727 258.002 35.7746 257.61 35.4148 257.102C35.0549 256.591 34.8561 255.985 34.8182 255.284H36.5795C36.6136 255.705 36.75 256.055 36.9886 256.335C37.2311 256.612 37.5398 256.818 37.9148 256.955C38.2936 257.087 38.7083 257.153 39.1591 257.153C39.6553 257.153 40.0966 257.076 40.483 256.92C40.8731 256.761 41.1799 256.542 41.4034 256.261C41.6269 255.977 41.7386 255.646 41.7386 255.267C41.7386 254.922 41.6402 254.64 41.4432 254.42C41.25 254.201 40.9867 254.019 40.6534 253.875C40.3239 253.731 39.9508 253.604 39.5341 253.494L38.1591 253.119C37.2273 252.866 36.4886 252.492 35.9432 252C35.4015 251.508 35.1307 250.856 35.1307 250.045C35.1307 249.375 35.3125 248.79 35.6761 248.29C36.0398 247.79 36.5322 247.402 37.1534 247.125C37.7746 246.845 38.4754 246.705 39.2557 246.705C40.0436 246.705 40.7386 246.843 41.3409 247.119C41.947 247.396 42.4242 247.777 42.7727 248.261C43.1212 248.742 43.303 249.295 43.3182 249.92H41.625ZM49.831 246.864V258.5H48.0696V248.625H48.0014L45.2173 250.443V248.761L48.1207 246.864H49.831ZM56.8196 258.659C56.1075 258.659 55.4673 258.523 54.8991 258.25C54.3348 257.973 53.884 257.595 53.5469 257.114C53.2098 256.633 53.0298 256.083 53.0071 255.466H54.7116C54.7533 255.966 54.9749 256.377 55.3764 256.699C55.7779 257.021 56.259 257.182 56.8196 257.182C57.2666 257.182 57.6624 257.08 58.0071 256.875C58.3556 256.667 58.6283 256.381 58.8253 256.017C59.026 255.653 59.1264 255.239 59.1264 254.773C59.1264 254.299 59.0241 253.877 58.8196 253.506C58.6151 253.134 58.3329 252.843 57.973 252.631C57.617 252.419 57.2079 252.311 56.7457 252.307C56.3935 252.307 56.0393 252.367 55.6832 252.489C55.3272 252.61 55.0393 252.769 54.8196 252.966L53.2116 252.727L53.8651 246.864H60.2628V248.369H55.3253L54.956 251.625H55.0241C55.2514 251.405 55.5526 251.222 55.9276 251.074C56.3063 250.926 56.7116 250.852 57.1435 250.852C57.8518 250.852 58.4825 251.021 59.0355 251.358C59.5923 251.695 60.0298 252.155 60.348 252.739C60.67 253.318 60.8291 253.985 60.8253 254.739C60.8291 255.492 60.6586 256.165 60.3139 256.756C59.973 257.347 59.4995 257.812 58.8935 258.153C58.2912 258.491 57.5999 258.659 56.8196 258.659ZM67.3551 246.318L63.6051 260.25H62.0881L65.8381 246.318H67.3551ZM70.4972 253.318V258.5H68.7983V246.864H70.4744V251.193H70.5824C70.7869 250.723 71.0994 250.35 71.5199 250.074C71.9403 249.797 72.4896 249.659 73.1676 249.659C73.7661 249.659 74.2888 249.782 74.7358 250.028C75.1866 250.275 75.535 250.642 75.7812 251.131C76.0312 251.616 76.1562 252.222 76.1562 252.949V258.5H74.4574V253.153C74.4574 252.513 74.2926 252.017 73.9631 251.665C73.6335 251.309 73.1752 251.131 72.5881 251.131C72.1866 251.131 71.8267 251.216 71.5085 251.386C71.1941 251.557 70.946 251.807 70.7642 252.136C70.5862 252.462 70.4972 252.856 70.4972 253.318ZM78.4233 258.5V249.773H80.0653V251.159H80.1562C80.3153 250.689 80.5956 250.32 80.9972 250.051C81.4025 249.778 81.8608 249.642 82.3722 249.642C82.4782 249.642 82.6032 249.646 82.7472 249.653C82.8949 249.661 83.0104 249.67 83.0938 249.682V251.307C83.0256 251.288 82.9044 251.267 82.7301 251.244C82.5559 251.218 82.3816 251.205 82.2074 251.205C81.8059 251.205 81.4479 251.29 81.1335 251.46C80.8229 251.627 80.5767 251.86 80.3949 252.159C80.2131 252.455 80.1222 252.792 80.1222 253.17V258.5H78.4233Z" fill="black"/>
<rect x="175" y="238" width="51" height="30" rx="8" fill="black"/>
<path d="M193.86 248.601L190.616 258H188.465L185.247 248.601H187.061L189.544 255.796L192.046 248.601H193.86ZM196.826 251.279V258H195.013V251.279H196.826ZM196.846 248.607V250.317H195V248.607H196.846ZM200.106 255.075C200.102 255.417 200.156 255.716 200.268 255.972C200.381 256.223 200.544 256.418 200.756 256.557C200.973 256.691 201.233 256.758 201.536 256.758C201.861 256.758 202.145 256.689 202.387 256.55C202.634 256.412 202.806 256.184 202.901 255.868H204.61C204.537 256.345 204.346 256.752 204.038 257.09C203.735 257.428 203.367 257.686 202.933 257.863C202.5 258.041 202.049 258.13 201.581 258.13C200.918 258.13 200.333 257.991 199.826 257.714C199.324 257.432 198.932 257.036 198.65 256.524C198.368 256.013 198.227 255.411 198.227 254.718C198.227 254.046 198.355 253.441 198.611 252.904C198.867 252.362 199.237 251.935 199.722 251.623C200.212 251.307 200.799 251.149 201.484 251.149C202.169 251.149 202.743 251.294 203.206 251.584C203.674 251.87 204.025 252.271 204.259 252.787C204.498 253.298 204.617 253.89 204.617 254.561V255.075H200.106ZM200.099 253.944H202.842C202.842 253.675 202.793 253.428 202.693 253.203C202.593 252.978 202.442 252.8 202.238 252.67C202.039 252.54 201.787 252.475 201.484 252.475C201.189 252.475 200.938 252.546 200.73 252.689C200.526 252.828 200.37 253.01 200.262 253.235C200.154 253.461 200.099 253.697 200.099 253.944ZM214.924 251.279L212.714 258H211.206L209.952 253.931L208.704 258H207.235L205.057 251.279H206.734L208.021 255.445H208.073L209.308 251.279H210.66L211.908 255.445H211.96L213.208 251.279H214.924Z" fill="white"/>
</svg>
