<svg width="260" height="302" viewBox="0 0 260 302" fill="none" xmlns="http://www.w3.org/2000/svg">
<rect width="260" height="302" rx="16" fill="white"/>
<rect x="10" y="10" width="240" height="282" rx="8" fill="black"/>
<circle cx="39" cy="48" r="9" fill="#E80B26"/>
<circle cx="51" cy="48" r="9" fill="#F59D31"/>
<path d="M45 54.7075C46.8413 53.0596 48 50.6648 48 47.9993C48 45.3337 46.8413 42.939 45 41.291C43.1587 42.939 42 45.3337 42 47.9993C42 50.6648 43.1587 53.0596 45 54.7075Z" fill="#FC6020"/>
<path d="M72.4091 41.8636H74.0909L78.0455 51.5227H78.1818L82.1364 41.8636H83.8182V53.5H82.5V44.6591H82.3864L78.75 53.5H77.4773L73.8409 44.6591H73.7273V53.5H72.4091V41.8636ZM89.0298 53.7045C88.4768 53.7045 87.9749 53.6004 87.5241 53.392C87.0734 53.1799 86.7154 52.875 86.4503 52.4773C86.1851 52.0758 86.0526 51.5909 86.0526 51.0227C86.0526 50.5227 86.151 50.1174 86.348 49.8068C86.545 49.4924 86.8082 49.2462 87.1378 49.0682C87.4673 48.8902 87.831 48.7576 88.2287 48.6705C88.6302 48.5795 89.0336 48.5076 89.4389 48.4545C89.9692 48.3864 90.3991 48.3352 90.7287 48.3011C91.062 48.2633 91.3045 48.2008 91.456 48.1136C91.6113 48.0265 91.6889 47.875 91.6889 47.6591V47.6136C91.6889 47.053 91.5355 46.6174 91.2287 46.3068C90.9257 45.9962 90.4654 45.8409 89.848 45.8409C89.2079 45.8409 88.706 45.9811 88.3423 46.2614C87.9787 46.5417 87.723 46.8409 87.5753 47.1591L86.3026 46.7045C86.5298 46.1742 86.8329 45.7614 87.2116 45.4659C87.5942 45.1667 88.0109 44.9583 88.4616 44.8409C88.9162 44.7197 89.3632 44.6591 89.8026 44.6591C90.0829 44.6591 90.4048 44.6932 90.7685 44.7614C91.1359 44.8258 91.4901 44.9602 91.831 45.1648C92.1757 45.3693 92.4616 45.678 92.6889 46.0909C92.9162 46.5038 93.0298 47.0568 93.0298 47.75V53.5H91.6889V52.3182H91.6207C91.5298 52.5076 91.3783 52.7102 91.1662 52.9261C90.9541 53.142 90.6719 53.3258 90.3196 53.4773C89.9673 53.6288 89.5374 53.7045 89.0298 53.7045ZM89.2344 52.5C89.7647 52.5 90.2116 52.3958 90.5753 52.1875C90.9427 51.9792 91.2192 51.7102 91.4048 51.3807C91.5942 51.0511 91.6889 50.7045 91.6889 50.3409V49.1136C91.6321 49.1818 91.5071 49.2443 91.3139 49.3011C91.1245 49.3542 90.9048 49.4015 90.6548 49.4432C90.4086 49.4811 90.1681 49.5152 89.9332 49.5455C89.7022 49.572 89.5147 49.5947 89.3707 49.6136C89.0223 49.6591 88.6965 49.733 88.3935 49.8352C88.0942 49.9337 87.8518 50.0833 87.6662 50.2841C87.4844 50.4811 87.3935 50.75 87.3935 51.0909C87.3935 51.5568 87.5658 51.9091 87.9105 52.1477C88.259 52.3826 88.7003 52.5 89.2344 52.5ZM101.659 46.7273L100.455 47.0682C100.379 46.8674 100.267 46.6723 100.119 46.483C99.9754 46.2898 99.7784 46.1307 99.5284 46.0057C99.2784 45.8807 98.9583 45.8182 98.5682 45.8182C98.0341 45.8182 97.589 45.9413 97.233 46.1875C96.8807 46.4299 96.7045 46.7386 96.7045 47.1136C96.7045 47.447 96.8258 47.7102 97.0682 47.9034C97.3106 48.0966 97.6894 48.2576 98.2045 48.3864L99.5 48.7045C100.28 48.8939 100.862 49.1837 101.244 49.5739C101.627 49.9602 101.818 50.4583 101.818 51.0682C101.818 51.5682 101.674 52.0152 101.386 52.4091C101.102 52.803 100.705 53.1136 100.193 53.3409C99.6818 53.5682 99.0871 53.6818 98.4091 53.6818C97.5189 53.6818 96.7822 53.4886 96.1989 53.1023C95.6155 52.7159 95.2462 52.1515 95.0909 51.4091L96.3636 51.0909C96.4848 51.5606 96.714 51.9129 97.0511 52.1477C97.392 52.3826 97.8371 52.5 98.3864 52.5C99.0114 52.5 99.5076 52.3674 99.875 52.1023C100.246 51.8333 100.432 51.5114 100.432 51.1364C100.432 50.8333 100.326 50.5795 100.114 50.375C99.9015 50.1667 99.5758 50.0114 99.1364 49.9091L97.6818 49.5682C96.8826 49.3788 96.2955 49.0852 95.9205 48.6875C95.5492 48.286 95.3636 47.7841 95.3636 47.1818C95.3636 46.6894 95.5019 46.2538 95.7784 45.875C96.0587 45.4962 96.4394 45.1989 96.9205 44.983C97.4053 44.767 97.9545 44.6591 98.5682 44.6591C99.4318 44.6591 100.11 44.8485 100.602 45.2273C101.098 45.6061 101.451 46.1061 101.659 46.7273ZM107.632 44.7727V45.9091H103.109V44.7727H107.632ZM104.428 42.6818H105.768V51C105.768 51.3788 105.823 51.6629 105.933 51.8523C106.047 52.0379 106.191 52.1629 106.365 52.2273C106.543 52.2879 106.731 52.3182 106.928 52.3182C107.075 52.3182 107.196 52.3106 107.291 52.2955C107.386 52.2765 107.462 52.2614 107.518 52.25L107.791 53.4545C107.7 53.4886 107.573 53.5227 107.411 53.5568C107.248 53.5947 107.041 53.6136 106.791 53.6136C106.412 53.6136 106.041 53.5322 105.678 53.3693C105.318 53.2064 105.018 52.9583 104.78 52.625C104.545 52.2917 104.428 51.8712 104.428 51.3636V42.6818ZM113.214 53.6818C112.374 53.6818 111.648 53.4962 111.038 53.125C110.432 52.75 109.964 52.2273 109.635 51.5568C109.309 50.8826 109.146 50.0985 109.146 49.2045C109.146 48.3106 109.309 47.5227 109.635 46.8409C109.964 46.1553 110.423 45.6212 111.01 45.2386C111.601 44.8523 112.29 44.6591 113.078 44.6591C113.533 44.6591 113.982 44.7348 114.425 44.8864C114.868 45.0379 115.271 45.2841 115.635 45.625C115.999 45.9621 116.288 46.4091 116.504 46.9659C116.72 47.5227 116.828 48.2083 116.828 49.0227V49.5909H110.101V48.4318H115.464C115.464 47.9394 115.366 47.5 115.169 47.1136C114.976 46.7273 114.699 46.4223 114.339 46.1989C113.983 45.9754 113.563 45.8636 113.078 45.8636C112.544 45.8636 112.082 45.9962 111.692 46.2614C111.305 46.5227 111.008 46.8636 110.8 47.2841C110.591 47.7045 110.487 48.1553 110.487 48.6364V49.4091C110.487 50.0682 110.601 50.6269 110.828 51.0852C111.059 51.5398 111.379 51.8864 111.788 52.125C112.197 52.3598 112.673 52.4773 113.214 52.4773C113.567 52.4773 113.885 52.428 114.169 52.3295C114.457 52.2273 114.705 52.0758 114.913 51.875C115.122 51.6705 115.283 51.4167 115.396 51.1136L116.692 51.4773C116.555 51.9167 116.326 52.303 116.004 52.6364C115.682 52.9659 115.285 53.2235 114.811 53.4091C114.338 53.5909 113.805 53.6818 113.214 53.6818ZM118.868 53.5V44.7727H120.163V46.0909H120.254C120.413 45.6591 120.701 45.3087 121.118 45.0398C121.535 44.7708 122.004 44.6364 122.527 44.6364C122.625 44.6364 122.749 44.6383 122.896 44.642C123.044 44.6458 123.156 44.6515 123.232 44.6591V46.0227C123.186 46.0114 123.082 45.9943 122.919 45.9716C122.76 45.9451 122.591 45.9318 122.413 45.9318C121.989 45.9318 121.61 46.0208 121.277 46.1989C120.947 46.3731 120.686 46.6155 120.493 46.9261C120.304 47.233 120.209 47.5833 120.209 47.9773V53.5H118.868ZM134.366 45.5H132.957C132.874 45.0947 132.728 44.7386 132.52 44.4318C132.315 44.125 132.065 43.8674 131.77 43.6591C131.478 43.447 131.154 43.2879 130.798 43.1818C130.442 43.0758 130.071 43.0227 129.685 43.0227C128.98 43.0227 128.342 43.2008 127.77 43.5568C127.202 43.9129 126.749 44.4375 126.412 45.1307C126.079 45.8239 125.912 46.6742 125.912 47.6818C125.912 48.6894 126.079 49.5398 126.412 50.233C126.749 50.9261 127.202 51.4508 127.77 51.8068C128.342 52.1629 128.98 52.3409 129.685 52.3409C130.071 52.3409 130.442 52.2879 130.798 52.1818C131.154 52.0758 131.478 51.9186 131.77 51.7102C132.065 51.4981 132.315 51.2386 132.52 50.9318C132.728 50.6212 132.874 50.2652 132.957 49.8636H134.366C134.26 50.4583 134.067 50.9905 133.787 51.4602C133.507 51.9299 133.158 52.3295 132.741 52.6591C132.325 52.9848 131.857 53.233 131.338 53.4034C130.823 53.5739 130.272 53.6591 129.685 53.6591C128.692 53.6591 127.81 53.4167 127.037 52.9318C126.264 52.447 125.656 51.7576 125.213 50.8636C124.77 49.9697 124.548 48.9091 124.548 47.6818C124.548 46.4545 124.77 45.3939 125.213 44.5C125.656 43.6061 126.264 42.9167 127.037 42.4318C127.81 41.947 128.692 41.7045 129.685 41.7045C130.272 41.7045 130.823 41.7898 131.338 41.9602C131.857 42.1307 132.325 42.3807 132.741 42.7102C133.158 43.036 133.507 43.4337 133.787 43.9034C134.067 44.3693 134.26 44.9015 134.366 45.5ZM139.03 53.7045C138.477 53.7045 137.975 53.6004 137.524 53.392C137.073 53.1799 136.715 52.875 136.45 52.4773C136.185 52.0758 136.053 51.5909 136.053 51.0227C136.053 50.5227 136.151 50.1174 136.348 49.8068C136.545 49.4924 136.808 49.2462 137.138 49.0682C137.467 48.8902 137.831 48.7576 138.229 48.6705C138.63 48.5795 139.034 48.5076 139.439 48.4545C139.969 48.3864 140.399 48.3352 140.729 48.3011C141.062 48.2633 141.304 48.2008 141.456 48.1136C141.611 48.0265 141.689 47.875 141.689 47.6591V47.6136C141.689 47.053 141.536 46.6174 141.229 46.3068C140.926 45.9962 140.465 45.8409 139.848 45.8409C139.208 45.8409 138.706 45.9811 138.342 46.2614C137.979 46.5417 137.723 46.8409 137.575 47.1591L136.303 46.7045C136.53 46.1742 136.833 45.7614 137.212 45.4659C137.594 45.1667 138.011 44.9583 138.462 44.8409C138.916 44.7197 139.363 44.6591 139.803 44.6591C140.083 44.6591 140.405 44.6932 140.768 44.7614C141.136 44.8258 141.49 44.9602 141.831 45.1648C142.176 45.3693 142.462 45.678 142.689 46.0909C142.916 46.5038 143.03 47.0568 143.03 47.75V53.5H141.689V52.3182H141.621C141.53 52.5076 141.378 52.7102 141.166 52.9261C140.954 53.142 140.672 53.3258 140.32 53.4773C139.967 53.6288 139.537 53.7045 139.03 53.7045ZM139.234 52.5C139.765 52.5 140.212 52.3958 140.575 52.1875C140.943 51.9792 141.219 51.7102 141.405 51.3807C141.594 51.0511 141.689 50.7045 141.689 50.3409V49.1136C141.632 49.1818 141.507 49.2443 141.314 49.3011C141.125 49.3542 140.905 49.4015 140.655 49.4432C140.409 49.4811 140.168 49.5152 139.933 49.5455C139.702 49.572 139.515 49.5947 139.371 49.6136C139.022 49.6591 138.696 49.733 138.393 49.8352C138.094 49.9337 137.852 50.0833 137.666 50.2841C137.484 50.4811 137.393 50.75 137.393 51.0909C137.393 51.5568 137.566 51.9091 137.911 52.1477C138.259 52.3826 138.7 52.5 139.234 52.5ZM145.477 53.5V44.7727H146.773V46.0909H146.864C147.023 45.6591 147.311 45.3087 147.727 45.0398C148.144 44.7708 148.614 44.6364 149.136 44.6364C149.235 44.6364 149.358 44.6383 149.506 44.642C149.653 44.6458 149.765 44.6515 149.841 44.6591V46.0227C149.795 46.0114 149.691 45.9943 149.528 45.9716C149.369 45.9451 149.201 45.9318 149.023 45.9318C148.598 45.9318 148.22 46.0208 147.886 46.1989C147.557 46.3731 147.295 46.6155 147.102 46.9261C146.913 47.233 146.818 47.5833 146.818 47.9773V53.5H145.477ZM154.46 53.6818C153.733 53.6818 153.091 53.4981 152.534 53.1307C151.977 52.7595 151.542 52.2367 151.227 51.5625C150.913 50.8845 150.756 50.0833 150.756 49.1591C150.756 48.2424 150.913 47.447 151.227 46.7727C151.542 46.0985 151.979 45.5777 152.54 45.2102C153.1 44.8428 153.748 44.6591 154.483 44.6591C155.051 44.6591 155.5 44.7538 155.83 44.9432C156.163 45.1288 156.417 45.3409 156.591 45.5795C156.769 45.8144 156.907 46.0076 157.006 46.1591H157.119V41.8636H158.46V53.5H157.165V52.1591H157.006C156.907 52.3182 156.767 52.5189 156.585 52.7614C156.403 53 156.144 53.214 155.807 53.4034C155.47 53.589 155.021 53.6818 154.46 53.6818ZM154.642 52.4773C155.18 52.4773 155.634 52.3371 156.006 52.0568C156.377 51.7727 156.659 51.3807 156.852 50.8807C157.045 50.3769 157.142 49.7955 157.142 49.1364C157.142 48.4848 157.047 47.9148 156.858 47.4261C156.669 46.9337 156.388 46.5511 156.017 46.2784C155.646 46.0019 155.188 45.8636 154.642 45.8636C154.074 45.8636 153.6 46.0095 153.222 46.3011C152.847 46.589 152.564 46.9811 152.375 47.4773C152.189 47.9697 152.097 48.5227 152.097 49.1364C152.097 49.7576 152.191 50.322 152.381 50.8295C152.574 51.3333 152.858 51.7348 153.233 52.0341C153.612 52.3295 154.081 52.4773 154.642 52.4773Z" fill="white"/>
<path d="M211 57L204 52L197 57V41C197 40.4696 197.211 39.9609 197.586 39.5858C197.961 39.2107 198.47 39 199 39H209C209.53 39 210.039 39.2107 210.414 39.5858C210.789 39.9609 211 40.4696 211 41V57Z" stroke="#F2F4F7" stroke-width="2" stroke-linecap="round" stroke-linejoin="round"/>
<path d="M31.1136 117V99.5455H37.2159C38.4318 99.5455 39.4347 99.7557 40.2244 100.176C41.0142 100.591 41.6023 101.151 41.9886 101.855C42.375 102.554 42.5682 103.33 42.5682 104.182C42.5682 104.932 42.4347 105.551 42.1676 106.04C41.9063 106.528 41.5597 106.915 41.1278 107.199C40.7017 107.483 40.2386 107.693 39.7386 107.83V108C40.2727 108.034 40.8097 108.222 41.3494 108.562C41.8892 108.903 42.3409 109.392 42.7045 110.028C43.0682 110.665 43.25 111.443 43.25 112.364C43.25 113.239 43.0511 114.026 42.6534 114.724C42.2557 115.423 41.6278 115.977 40.7699 116.386C39.9119 116.795 38.7955 117 37.4205 117H31.1136ZM33.2273 115.125H37.4205C38.8011 115.125 39.7813 114.858 40.3608 114.324C40.946 113.784 41.2386 113.131 41.2386 112.364C41.2386 111.773 41.0881 111.227 40.7869 110.727C40.4858 110.222 40.0568 109.818 39.5 109.517C38.9432 109.21 38.2841 109.057 37.5227 109.057H33.2273V115.125ZM33.2273 107.216H37.1477C37.7841 107.216 38.358 107.091 38.8693 106.841C39.3864 106.591 39.7955 106.239 40.0966 105.784C40.4034 105.33 40.5568 104.795 40.5568 104.182C40.5568 103.415 40.2898 102.764 39.7557 102.23C39.2216 101.69 38.375 101.42 37.2159 101.42H33.2273V107.216ZM50.3026 117.307C49.473 117.307 48.7202 117.151 48.044 116.838C47.3679 116.52 46.831 116.062 46.4332 115.466C46.0355 114.864 45.8366 114.136 45.8366 113.284C45.8366 112.534 45.9844 111.926 46.2798 111.46C46.5753 110.989 46.9702 110.619 47.4645 110.352C47.9588 110.085 48.5043 109.886 49.1009 109.756C49.7031 109.619 50.3082 109.511 50.9162 109.432C51.7116 109.33 52.3565 109.253 52.8509 109.202C53.3509 109.145 53.7145 109.051 53.9418 108.92C54.1747 108.79 54.2912 108.562 54.2912 108.239V108.17C54.2912 107.33 54.0611 106.676 53.6009 106.21C53.1463 105.744 52.456 105.511 51.5298 105.511C50.5696 105.511 49.8168 105.722 49.2713 106.142C48.7259 106.562 48.3423 107.011 48.1207 107.489L46.2116 106.807C46.5526 106.011 47.0071 105.392 47.5753 104.949C48.1491 104.5 48.7741 104.187 49.4503 104.011C50.1321 103.83 50.8026 103.739 51.4616 103.739C51.8821 103.739 52.3651 103.79 52.9105 103.892C53.4616 103.989 53.9929 104.19 54.5043 104.497C55.0213 104.804 55.4503 105.267 55.7912 105.886C56.1321 106.506 56.3026 107.335 56.3026 108.375V117H54.2912V115.227H54.1889C54.0526 115.511 53.8253 115.815 53.5071 116.139C53.1889 116.463 52.7656 116.739 52.2372 116.966C51.7088 117.193 51.0639 117.307 50.3026 117.307ZM50.6094 115.5C51.4048 115.5 52.0753 115.344 52.6207 115.031C53.1719 114.719 53.5866 114.315 53.8651 113.821C54.1491 113.327 54.2912 112.807 54.2912 112.261V110.42C54.206 110.523 54.0185 110.616 53.7287 110.702C53.4446 110.781 53.1151 110.852 52.7401 110.915C52.3707 110.972 52.0099 111.023 51.6577 111.068C51.3111 111.108 51.0298 111.142 50.8139 111.17C50.2912 111.239 49.8026 111.349 49.348 111.503C48.8991 111.651 48.5355 111.875 48.2571 112.176C47.9844 112.472 47.848 112.875 47.848 113.386C47.848 114.085 48.1065 114.614 48.6236 114.972C49.1463 115.324 49.8082 115.5 50.6094 115.5ZM65.2919 117.273C64.0646 117.273 63.0078 116.983 62.1214 116.403C61.2351 115.824 60.5533 115.026 60.076 114.009C59.5987 112.991 59.3601 111.83 59.3601 110.523C59.3601 109.193 59.6044 108.02 60.093 107.003C60.5874 105.98 61.2749 105.182 62.1555 104.608C63.0419 104.028 64.076 103.739 65.2578 103.739C66.1783 103.739 67.0078 103.909 67.7464 104.25C68.4851 104.591 69.0902 105.068 69.5618 105.682C70.0334 106.295 70.326 107.011 70.4396 107.83H68.4283C68.2749 107.233 67.9339 106.705 67.4055 106.244C66.8828 105.778 66.1783 105.545 65.2919 105.545C64.5078 105.545 63.8203 105.75 63.2294 106.159C62.6442 106.562 62.1868 107.134 61.8572 107.872C61.5334 108.605 61.3714 109.466 61.3714 110.455C61.3714 111.466 61.5305 112.347 61.8487 113.097C62.1726 113.847 62.6271 114.429 63.2124 114.844C63.8033 115.259 64.4964 115.466 65.2919 115.466C65.8146 115.466 66.2891 115.375 66.7152 115.193C67.1413 115.011 67.5021 114.75 67.7976 114.409C68.093 114.068 68.3033 113.659 68.4283 113.182H70.4396C70.326 113.955 70.0447 114.651 69.5959 115.27C69.1527 115.884 68.5646 116.372 67.8317 116.736C67.1044 117.094 66.2578 117.273 65.2919 117.273ZM75.255 112.227L75.2209 109.739H75.63L81.3572 103.909H83.8459L77.7436 110.08H77.5732L75.255 112.227ZM73.38 117V99.5455H75.3913V117H73.38ZM81.6982 117L76.5845 110.523L78.0163 109.125L84.255 117H81.6982ZM91.3842 117.273C90.1229 117.273 89.0348 116.994 88.12 116.438C87.2109 115.875 86.5092 115.091 86.0149 114.085C85.5263 113.074 85.282 111.898 85.282 110.557C85.282 109.216 85.5263 108.034 86.0149 107.011C86.5092 105.983 87.1967 105.182 88.0774 104.608C88.9638 104.028 89.9979 103.739 91.1797 103.739C91.8615 103.739 92.5348 103.852 93.1996 104.08C93.8643 104.307 94.4695 104.676 95.0149 105.188C95.5604 105.693 95.995 106.364 96.3189 107.199C96.6428 108.034 96.8047 109.062 96.8047 110.284V111.136H86.7138V109.398H94.7592C94.7592 108.659 94.6115 108 94.3161 107.42C94.0263 106.841 93.6115 106.384 93.0717 106.048C92.5376 105.713 91.907 105.545 91.1797 105.545C90.3786 105.545 89.6854 105.744 89.1001 106.142C88.5206 106.534 88.0746 107.045 87.7621 107.676C87.4496 108.307 87.2933 108.983 87.2933 109.705V110.864C87.2933 111.852 87.4638 112.69 87.8047 113.378C88.1513 114.06 88.6314 114.58 89.245 114.938C89.8587 115.29 90.5717 115.466 91.3842 115.466C91.9126 115.466 92.3899 115.392 92.8161 115.244C93.2479 115.091 93.62 114.864 93.9325 114.562C94.245 114.256 94.4865 113.875 94.657 113.42L96.6001 113.966C96.3956 114.625 96.0518 115.205 95.5689 115.705C95.0859 116.199 94.4893 116.585 93.7791 116.864C93.0689 117.136 92.2706 117.273 91.3842 117.273ZM101.876 109.125V117H99.8643V103.909H101.808V105.955H101.978C102.285 105.29 102.751 104.756 103.376 104.352C104.001 103.943 104.808 103.739 105.796 103.739C106.683 103.739 107.458 103.92 108.123 104.284C108.788 104.642 109.305 105.188 109.674 105.92C110.043 106.648 110.228 107.568 110.228 108.682V117H108.217V108.818C108.217 107.79 107.95 106.989 107.415 106.415C106.881 105.835 106.148 105.545 105.217 105.545C104.575 105.545 104.001 105.685 103.495 105.963C102.995 106.241 102.6 106.648 102.31 107.182C102.021 107.716 101.876 108.364 101.876 109.125ZM118.847 117.273C117.756 117.273 116.793 116.997 115.957 116.446C115.122 115.889 114.469 115.105 113.997 114.094C113.526 113.077 113.29 111.875 113.29 110.489C113.29 109.114 113.526 107.92 113.997 106.909C114.469 105.898 115.125 105.116 115.966 104.565C116.807 104.014 117.778 103.739 118.881 103.739C119.733 103.739 120.406 103.881 120.901 104.165C121.401 104.443 121.781 104.761 122.043 105.119C122.31 105.472 122.517 105.761 122.665 105.989H122.835V99.5455H124.847V117H122.903V114.989H122.665C122.517 115.227 122.307 115.528 122.034 115.892C121.761 116.25 121.372 116.571 120.866 116.855C120.361 117.134 119.688 117.273 118.847 117.273ZM119.119 115.466C119.926 115.466 120.608 115.256 121.165 114.835C121.722 114.409 122.145 113.821 122.435 113.071C122.724 112.315 122.869 111.443 122.869 110.455C122.869 109.477 122.727 108.622 122.443 107.889C122.159 107.151 121.739 106.577 121.182 106.168C120.625 105.753 119.938 105.545 119.119 105.545C118.267 105.545 117.557 105.764 116.989 106.202C116.426 106.634 116.003 107.222 115.719 107.966C115.44 108.705 115.301 109.534 115.301 110.455C115.301 111.386 115.443 112.233 115.727 112.994C116.017 113.75 116.443 114.352 117.006 114.801C117.574 115.244 118.278 115.466 119.119 115.466ZM31.1136 146V128.545H41.6477V130.42H33.2273V136.318H41.1023V138.193H33.2273V144.125H41.7841V146H31.1136ZM47.196 138.125V146H45.1847V132.909H47.1278V134.955H47.2983C47.6051 134.29 48.071 133.756 48.696 133.352C49.321 132.943 50.1278 132.739 51.1165 132.739C52.0028 132.739 52.7784 132.92 53.4432 133.284C54.108 133.642 54.625 134.188 54.9943 134.92C55.3636 135.648 55.5483 136.568 55.5483 137.682V146H53.5369V137.818C53.5369 136.79 53.2699 135.989 52.7358 135.415C52.2017 134.835 51.4688 134.545 50.5369 134.545C49.8949 134.545 49.321 134.685 48.8153 134.963C48.3153 135.241 47.9205 135.648 47.6307 136.182C47.3409 136.716 47.196 137.364 47.196 138.125ZM64.5078 151.182C63.5362 151.182 62.701 151.057 62.0021 150.807C61.3033 150.562 60.7209 150.239 60.255 149.835C59.7947 149.438 59.4283 149.011 59.1555 148.557L60.7578 147.432C60.9396 147.67 61.1697 147.943 61.4482 148.25C61.7266 148.562 62.1072 148.832 62.5902 149.06C63.0788 149.293 63.718 149.409 64.5078 149.409C65.5646 149.409 66.4368 149.153 67.1243 148.642C67.8118 148.131 68.1555 147.33 68.1555 146.239V143.58H67.9851C67.8374 143.818 67.6271 144.114 67.3544 144.466C67.0874 144.812 66.701 145.122 66.1953 145.395C65.6953 145.662 65.0192 145.795 64.1669 145.795C63.1101 145.795 62.1612 145.545 61.3203 145.045C60.4851 144.545 59.8232 143.818 59.3345 142.864C58.8516 141.909 58.6101 140.75 58.6101 139.386C58.6101 138.045 58.8459 136.878 59.3175 135.884C59.7891 134.884 60.4453 134.111 61.2862 133.565C62.1271 133.014 63.0987 132.739 64.201 132.739C65.0533 132.739 65.7294 132.881 66.2294 133.165C66.7351 133.443 67.1214 133.761 67.3885 134.119C67.6612 134.472 67.8714 134.761 68.0192 134.989H68.2237V132.909H70.1669V146.375C70.1669 147.5 69.9112 148.415 69.3999 149.119C68.8942 149.83 68.2124 150.349 67.3544 150.679C66.5021 151.014 65.5533 151.182 64.5078 151.182ZM64.4396 143.989C65.2464 143.989 65.9283 143.804 66.4851 143.435C67.0419 143.065 67.4652 142.534 67.755 141.841C68.0447 141.148 68.1896 140.318 68.1896 139.352C68.1896 138.409 68.0476 137.577 67.7635 136.855C67.4794 136.134 67.0589 135.568 66.5021 135.159C65.9453 134.75 65.2578 134.545 64.4396 134.545C63.5874 134.545 62.8771 134.761 62.3089 135.193C61.7464 135.625 61.3232 136.205 61.0391 136.932C60.7607 137.659 60.6214 138.466 60.6214 139.352C60.6214 140.261 60.7635 141.065 61.0476 141.764C61.3374 142.457 61.7635 143.003 62.326 143.401C62.8942 143.793 63.5987 143.989 64.4396 143.989ZM73.8487 146V132.909H75.8601V146H73.8487ZM74.8714 130.727C74.4794 130.727 74.1413 130.594 73.8572 130.327C73.5788 130.06 73.4396 129.739 73.4396 129.364C73.4396 128.989 73.5788 128.668 73.8572 128.401C74.1413 128.134 74.4794 128 74.8714 128C75.2635 128 75.5987 128.134 75.8771 128.401C76.1612 128.668 76.3033 128.989 76.3033 129.364C76.3033 129.739 76.1612 130.06 75.8771 130.327C75.5987 130.594 75.2635 130.727 74.8714 130.727ZM81.5554 138.125V146H79.544V132.909H81.4872V134.955H81.6577C81.9645 134.29 82.4304 133.756 83.0554 133.352C83.6804 132.943 84.4872 132.739 85.4759 132.739C86.3622 132.739 87.1378 132.92 87.8026 133.284C88.4673 133.642 88.9844 134.188 89.3537 134.92C89.723 135.648 89.9077 136.568 89.9077 137.682V146H87.8963V137.818C87.8963 136.79 87.6293 135.989 87.0952 135.415C86.5611 134.835 85.8281 134.545 84.8963 134.545C84.2543 134.545 83.6804 134.685 83.1747 134.963C82.6747 135.241 82.2798 135.648 81.9901 136.182C81.7003 136.716 81.5554 137.364 81.5554 138.125ZM99.0717 146.273C97.8104 146.273 96.7223 145.994 95.8075 145.438C94.8984 144.875 94.1967 144.091 93.7024 143.085C93.2138 142.074 92.9695 140.898 92.9695 139.557C92.9695 138.216 93.2138 137.034 93.7024 136.011C94.1967 134.983 94.8842 134.182 95.7649 133.608C96.6513 133.028 97.6854 132.739 98.8672 132.739C99.549 132.739 100.222 132.852 100.887 133.08C101.552 133.307 102.157 133.676 102.702 134.188C103.248 134.693 103.683 135.364 104.006 136.199C104.33 137.034 104.492 138.062 104.492 139.284V140.136H94.4013V138.398H102.447C102.447 137.659 102.299 137 102.004 136.42C101.714 135.841 101.299 135.384 100.759 135.048C100.225 134.713 99.5945 134.545 98.8672 134.545C98.0661 134.545 97.3729 134.744 96.7876 135.142C96.2081 135.534 95.7621 136.045 95.4496 136.676C95.1371 137.307 94.9808 137.983 94.9808 138.705V139.864C94.9808 140.852 95.1513 141.69 95.4922 142.378C95.8388 143.06 96.3189 143.58 96.9325 143.938C97.5462 144.29 98.2592 144.466 99.0717 144.466C99.6001 144.466 100.077 144.392 100.504 144.244C100.935 144.091 101.308 143.864 101.62 143.562C101.933 143.256 102.174 142.875 102.344 142.42L104.288 142.966C104.083 143.625 103.739 144.205 103.256 144.705C102.773 145.199 102.177 145.585 101.467 145.864C100.756 146.136 99.9581 146.273 99.0717 146.273ZM113.04 146.273C111.779 146.273 110.691 145.994 109.776 145.438C108.867 144.875 108.165 144.091 107.671 143.085C107.183 142.074 106.938 140.898 106.938 139.557C106.938 138.216 107.183 137.034 107.671 136.011C108.165 134.983 108.853 134.182 109.734 133.608C110.62 133.028 111.654 132.739 112.836 132.739C113.518 132.739 114.191 132.852 114.856 133.08C115.521 133.307 116.126 133.676 116.671 134.188C117.217 134.693 117.651 135.364 117.975 136.199C118.299 137.034 118.461 138.062 118.461 139.284V140.136H108.37V138.398H116.415C116.415 137.659 116.268 137 115.972 136.42C115.683 135.841 115.268 135.384 114.728 135.048C114.194 134.713 113.563 134.545 112.836 134.545C112.035 134.545 111.342 134.744 110.756 135.142C110.177 135.534 109.731 136.045 109.418 136.676C109.106 137.307 108.95 137.983 108.95 138.705V139.864C108.95 140.852 109.12 141.69 109.461 142.378C109.808 143.06 110.288 143.58 110.901 143.938C111.515 144.29 112.228 144.466 113.04 144.466C113.569 144.466 114.046 144.392 114.472 144.244C114.904 144.091 115.276 143.864 115.589 143.562C115.901 143.256 116.143 142.875 116.313 142.42L118.256 142.966C118.052 143.625 117.708 144.205 117.225 144.705C116.742 145.199 116.146 145.585 115.435 145.864C114.725 146.136 113.927 146.273 113.04 146.273ZM121.521 146V132.909H123.464V134.886H123.6C123.839 134.239 124.271 133.713 124.896 133.31C125.521 132.906 126.225 132.705 127.009 132.705C127.157 132.705 127.342 132.707 127.563 132.713C127.785 132.719 127.952 132.727 128.066 132.739V134.784C127.998 134.767 127.842 134.741 127.597 134.707C127.359 134.668 127.106 134.648 126.839 134.648C126.202 134.648 125.634 134.781 125.134 135.048C124.64 135.31 124.248 135.673 123.958 136.139C123.674 136.599 123.532 137.125 123.532 137.716V146H121.521Z" fill="white"/>
<path d="M197 140H211M211 140L204 133M211 140L204 147" stroke="#F2F4F7" stroke-width="2" stroke-linecap="round" stroke-linejoin="round"/>
<rect width="240" height="78" transform="translate(10 214)" fill="white"/>
<path d="M38.7102 259.955V245.409H39.642V259.955H38.7102ZM41.625 249.92C41.5644 249.383 41.3144 248.966 40.875 248.67C40.4356 248.371 39.8826 248.222 39.2159 248.222C38.7386 248.222 38.3258 248.297 37.9773 248.449C37.6288 248.597 37.358 248.801 37.1648 249.062C36.9754 249.32 36.8807 249.614 36.8807 249.943C36.8807 250.22 36.9451 250.458 37.0739 250.659C37.2064 250.86 37.3788 251.028 37.5909 251.165C37.8068 251.297 38.0379 251.409 38.2841 251.5C38.5303 251.587 38.767 251.659 38.9943 251.716L40.1307 252.011C40.5019 252.102 40.8826 252.225 41.2727 252.381C41.6629 252.536 42.0246 252.741 42.358 252.994C42.6913 253.248 42.9602 253.562 43.1648 253.938C43.3731 254.312 43.4773 254.761 43.4773 255.284C43.4773 255.943 43.3068 256.528 42.9659 257.04C42.6288 257.551 42.1383 257.955 41.4943 258.25C40.8542 258.545 40.0795 258.693 39.1705 258.693C38.2992 258.693 37.5455 258.555 36.9091 258.278C36.2727 258.002 35.7746 257.61 35.4148 257.102C35.0549 256.591 34.8561 255.985 34.8182 255.284H36.5795C36.6136 255.705 36.75 256.055 36.9886 256.335C37.2311 256.612 37.5398 256.818 37.9148 256.955C38.2936 257.087 38.7083 257.153 39.1591 257.153C39.6553 257.153 40.0966 257.076 40.483 256.92C40.8731 256.761 41.1799 256.542 41.4034 256.261C41.6269 255.977 41.7386 255.646 41.7386 255.267C41.7386 254.922 41.6402 254.64 41.4432 254.42C41.25 254.201 40.9867 254.019 40.6534 253.875C40.3239 253.731 39.9508 253.604 39.5341 253.494L38.1591 253.119C37.2273 252.866 36.4886 252.492 35.9432 252C35.4015 251.508 35.1307 250.856 35.1307 250.045C35.1307 249.375 35.3125 248.79 35.6761 248.29C36.0398 247.79 36.5322 247.402 37.1534 247.125C37.7746 246.845 38.4754 246.705 39.2557 246.705C40.0436 246.705 40.7386 246.843 41.3409 247.119C41.947 247.396 42.4242 247.777 42.7727 248.261C43.1212 248.742 43.303 249.295 43.3182 249.92H41.625ZM49.831 246.864V258.5H48.0696V248.625H48.0014L45.2173 250.443V248.761L48.1207 246.864H49.831ZM57.0298 258.693C56.1321 258.689 55.3651 258.453 54.7287 257.983C54.0923 257.513 53.6056 256.83 53.2685 255.932C52.9313 255.034 52.7628 253.953 52.7628 252.688C52.7628 251.426 52.9313 250.348 53.2685 249.455C53.6094 248.561 54.098 247.879 54.7344 247.409C55.3745 246.939 56.1397 246.705 57.0298 246.705C57.92 246.705 58.6832 246.941 59.3196 247.415C59.956 247.884 60.4427 248.566 60.7798 249.46C61.1207 250.35 61.2912 251.426 61.2912 252.688C61.2912 253.956 61.1226 255.04 60.7855 255.938C60.4484 256.831 59.9616 257.515 59.3253 257.989C58.6889 258.458 57.9238 258.693 57.0298 258.693ZM57.0298 257.176C57.8177 257.176 58.4332 256.792 58.8764 256.023C59.3234 255.254 59.5469 254.142 59.5469 252.688C59.5469 251.722 59.4446 250.905 59.2401 250.239C59.0393 249.568 58.7495 249.061 58.3707 248.716C57.9957 248.367 57.5488 248.193 57.0298 248.193C56.2457 248.193 55.6302 248.58 55.1832 249.352C54.7363 250.125 54.5109 251.237 54.5071 252.688C54.5071 253.657 54.6075 254.477 54.8082 255.148C55.0128 255.814 55.3026 256.32 55.6776 256.665C56.0526 257.006 56.5033 257.176 57.0298 257.176ZM67.7614 246.318L64.0114 260.25H62.4943L66.2443 246.318H67.7614ZM70.9034 253.318V258.5H69.2045V246.864H70.8807V251.193H70.9886C71.1932 250.723 71.5057 250.35 71.9261 250.074C72.3466 249.797 72.8958 249.659 73.5739 249.659C74.1723 249.659 74.6951 249.782 75.142 250.028C75.5928 250.275 75.9413 250.642 76.1875 251.131C76.4375 251.616 76.5625 252.222 76.5625 252.949V258.5H74.8636V253.153C74.8636 252.513 74.6989 252.017 74.3693 251.665C74.0398 251.309 73.5814 251.131 72.9943 251.131C72.5928 251.131 72.233 251.216 71.9148 251.386C71.6004 251.557 71.3523 251.807 71.1705 252.136C70.9924 252.462 70.9034 252.856 70.9034 253.318ZM78.8295 258.5V249.773H80.4716V251.159H80.5625C80.7216 250.689 81.0019 250.32 81.4034 250.051C81.8087 249.778 82.267 249.642 82.7784 249.642C82.8845 249.642 83.0095 249.646 83.1534 249.653C83.3011 249.661 83.4167 249.67 83.5 249.682V251.307C83.4318 251.288 83.3106 251.267 83.1364 251.244C82.9621 251.218 82.7879 251.205 82.6136 251.205C82.2121 251.205 81.8542 251.29 81.5398 251.46C81.2292 251.627 80.983 251.86 80.8011 252.159C80.6193 252.455 80.5284 252.792 80.5284 253.17V258.5H78.8295Z" fill="black"/>
<rect x="175" y="238" width="51" height="30" rx="8" fill="black"/>
<path d="M193.86 248.601L190.616 258H188.465L185.247 248.601H187.061L189.544 255.796L192.046 248.601H193.86ZM196.826 251.279V258H195.013V251.279H196.826ZM196.846 248.607V250.317H195V248.607H196.846ZM200.106 255.075C200.102 255.417 200.156 255.716 200.268 255.972C200.381 256.223 200.544 256.418 200.756 256.557C200.973 256.691 201.233 256.758 201.536 256.758C201.861 256.758 202.145 256.689 202.387 256.55C202.634 256.412 202.806 256.184 202.901 255.868H204.61C204.537 256.345 204.346 256.752 204.038 257.09C203.735 257.428 203.367 257.686 202.933 257.863C202.5 258.041 202.049 258.13 201.581 258.13C200.918 258.13 200.333 257.991 199.826 257.714C199.324 257.432 198.932 257.036 198.65 256.524C198.368 256.013 198.227 255.411 198.227 254.718C198.227 254.046 198.355 253.441 198.611 252.904C198.867 252.362 199.237 251.935 199.722 251.623C200.212 251.307 200.799 251.149 201.484 251.149C202.169 251.149 202.743 251.294 203.206 251.584C203.674 251.87 204.025 252.271 204.259 252.787C204.498 253.298 204.617 253.89 204.617 254.561V255.075H200.106ZM200.099 253.944H202.842C202.842 253.675 202.793 253.428 202.693 253.203C202.593 252.978 202.442 252.8 202.238 252.67C202.039 252.54 201.787 252.475 201.484 252.475C201.189 252.475 200.938 252.546 200.73 252.689C200.526 252.828 200.37 253.01 200.262 253.235C200.154 253.461 200.099 253.697 200.099 253.944ZM214.924 251.279L212.714 258H211.206L209.952 253.931L208.704 258H207.235L205.057 251.279H206.734L208.021 255.445H208.073L209.308 251.279H210.66L211.908 255.445H211.96L213.208 251.279H214.924Z" fill="white"/>
</svg>
